<svg width="385" height="422" viewBox="0 0 385 422" fill="none" xmlns="http://www.w3.org/2000/svg">
<g clip-path="url(#clip0_172_1706)">
<path d="M368.745 373H11.2908C11.2526 373 11.2148 372.992 11.1795 372.977C11.1442 372.962 11.1122 372.939 11.0852 372.911C11.0582 372.884 11.0368 372.85 11.0221 372.814C11.0075 372.778 11 372.738 11 372.699C11 372.66 11.0075 372.62 11.0221 372.584C11.0368 372.548 11.0582 372.514 11.0852 372.486C11.1122 372.459 11.1442 372.436 11.1795 372.421C11.2148 372.406 11.2526 372.398 11.2908 372.398H368.745C368.822 372.398 368.896 372.43 368.95 372.486C369.005 372.543 369.035 372.619 369.035 372.699C369.035 372.779 369.005 372.855 368.95 372.911C368.896 372.968 368.822 373 368.745 373H368.745Z" fill="#292A2E"/>
<g opacity="0.65">
<path d="M368.745 373H11.2908C11.2526 373 11.2148 372.992 11.1795 372.977C11.1442 372.962 11.1122 372.939 11.0852 372.911C11.0582 372.884 11.0368 372.85 11.0221 372.814C11.0075 372.778 11 372.738 11 372.699C11 372.66 11.0075 372.62 11.0221 372.584C11.0368 372.548 11.0582 372.514 11.0852 372.486C11.1122 372.459 11.1442 372.436 11.1795 372.421C11.2148 372.406 11.2526 372.398 11.2908 372.398H368.745C368.822 372.398 368.896 372.43 368.95 372.486C369.005 372.543 369.035 372.619 369.035 372.699C369.035 372.779 369.005 372.855 368.95 372.911C368.896 372.968 368.822 373 368.745 373H368.745Z" fill="#292A2E"/>
</g>
<path d="M36.1753 372.471L35.3594 372.309L48.1118 241.344L48.9277 241.506L36.1753 372.471Z" fill="#8D8D8D"/>
<path d="M83.6597 372.471L82.8438 372.309L95.5961 241.344L96.4116 241.506L83.6597 372.471Z" fill="#8D8D8D"/>
<path d="M188.623 372.471L189.439 372.309L176.687 241.344L175.871 241.506L188.623 372.471Z" fill="#8D8D8D"/>
<path d="M141.139 372.471L141.955 372.309L129.203 241.344L128.387 241.506L141.139 372.471Z" fill="#8D8D8D"/>
<path d="M124.226 183.707L123.402 183.82L130.852 241.484L131.676 241.37L124.226 183.707Z" fill="#8D8D8D"/>
<path d="M38.7181 183.707L37.8945 183.82L45.3442 241.484L46.1678 241.37L38.7181 183.707Z" fill="#8D8D8D"/>
<path d="M131.601 237.203H47.9648C45.7082 237.203 43.8789 239.094 43.8789 241.426V241.426C43.8789 243.758 45.7082 245.649 47.9648 245.649H131.601C133.858 245.649 135.687 243.758 135.687 241.426V241.426C135.687 239.094 133.858 237.203 131.601 237.203Z" fill="#292A2E"/>
<path opacity="0.8" d="M131.601 237.203H47.9648C45.7082 237.203 43.8789 239.094 43.8789 241.426V241.426C43.8789 243.758 45.7082 245.649 47.9648 245.649H131.601C133.858 245.649 135.687 243.758 135.687 241.426V241.426C135.687 239.094 133.858 237.203 131.601 237.203Z" fill="white"/>
<path d="M131.601 246.078H47.9663C46.7799 246.066 45.646 245.571 44.8111 244.7C43.9762 243.828 43.5078 242.652 43.5078 241.426C43.5078 240.199 43.9762 239.023 44.8111 238.152C45.646 237.281 46.7799 236.785 47.9663 236.773H131.601C132.788 236.785 133.922 237.281 134.756 238.152C135.591 239.023 136.06 240.199 136.06 241.426C136.06 242.652 135.591 243.828 134.756 244.7C133.922 245.571 132.788 246.066 131.601 246.078ZM47.9663 237.632C46.9995 237.643 46.0759 238.047 45.3959 238.757C44.7159 239.468 44.3345 240.426 44.3345 241.426C44.3345 242.425 44.7159 243.384 45.3959 244.094C46.0759 244.804 46.9995 245.209 47.9663 245.219H131.601C132.568 245.209 133.492 244.804 134.172 244.094C134.852 243.384 135.233 242.425 135.233 241.426C135.233 240.426 134.852 239.468 134.172 238.757C133.492 238.047 132.568 237.643 131.601 237.632H47.9663Z" fill="#292A2E"/>
<path d="M177.508 237.203H93.871C91.6145 237.203 89.7852 239.094 89.7852 241.426V241.426C89.7852 243.758 91.6145 245.649 93.871 245.649H177.508C179.764 245.649 181.593 243.758 181.593 241.426V241.426C181.593 239.094 179.764 237.203 177.508 237.203Z" fill="white"/>
<path d="M177.51 246.078H93.8731C93.2783 246.084 92.6883 245.968 92.1371 245.737C91.586 245.506 91.0846 245.164 90.662 244.731C90.2394 244.299 89.9039 243.784 89.675 243.217C89.446 242.649 89.3281 242.041 89.3281 241.426C89.3281 240.811 89.446 240.203 89.675 239.635C89.9039 239.068 90.2394 238.553 90.662 238.12C91.0846 237.688 91.586 237.346 92.1371 237.115C92.6883 236.884 93.2783 236.768 93.8731 236.774H177.51C178.104 236.768 178.694 236.884 179.246 237.115C179.797 237.346 180.298 237.688 180.721 238.12C181.143 238.553 181.479 239.068 181.708 239.635C181.937 240.203 182.055 240.811 182.055 241.426C182.055 242.041 181.937 242.649 181.708 243.217C181.479 243.784 181.143 244.299 180.721 244.731C180.298 245.164 179.797 245.506 179.246 245.737C178.694 245.968 178.104 246.084 177.51 246.078ZM93.8731 237.632C93.3878 237.627 92.9062 237.721 92.4564 237.909C92.0065 238.098 91.5972 238.376 91.2522 238.729C90.9072 239.082 90.6333 239.502 90.4464 239.965C90.2595 240.428 90.1632 240.924 90.1632 241.426C90.1632 241.927 90.2595 242.424 90.4464 242.887C90.6333 243.35 90.9072 243.77 91.2522 244.123C91.5972 244.475 92.0065 244.754 92.4564 244.942C92.9062 245.131 93.3878 245.225 93.8731 245.219H177.51C177.995 245.225 178.477 245.131 178.926 244.942C179.376 244.754 179.786 244.475 180.131 244.123C180.476 243.77 180.749 243.35 180.936 242.887C181.123 242.424 181.22 241.927 181.22 241.426C181.22 240.924 181.123 240.428 180.936 239.965C180.749 239.502 180.476 239.082 180.131 238.729C179.786 238.376 179.376 238.098 178.926 237.909C178.477 237.721 177.995 237.627 177.51 237.632H93.8731Z" fill="#292A2E"/>
<path d="M119.643 183.764H38.5292C37.203 183.764 35.9222 183.266 34.9258 182.361C33.9294 181.457 33.2855 180.209 33.1143 178.85L27.7489 136.267C27.6485 135.471 27.7137 134.662 27.9399 133.894C28.1661 133.126 28.5483 132.417 29.0608 131.814C29.5733 131.211 30.2045 130.728 30.9121 130.397C31.6197 130.066 32.3875 129.894 33.1642 129.895H114.277C115.604 129.895 116.884 130.393 117.881 131.298C118.877 132.202 119.521 133.45 119.692 134.809L125.058 177.392C125.158 178.188 125.093 178.997 124.867 179.765C124.64 180.532 124.258 181.242 123.746 181.845C123.233 182.448 122.602 182.931 121.895 183.262C121.187 183.593 120.419 183.764 119.643 183.764Z" fill="#292A2E"/>
<path opacity="0.8" d="M119.643 183.764H38.5292C37.203 183.764 35.9222 183.266 34.9258 182.361C33.9294 181.457 33.2855 180.209 33.1143 178.85L27.7489 136.267C27.6485 135.471 27.7137 134.662 27.9399 133.894C28.1661 133.126 28.5483 132.417 29.0608 131.814C29.5733 131.211 30.2045 130.728 30.9121 130.397C31.6197 130.066 32.3875 129.894 33.1642 129.895H114.277C115.604 129.895 116.884 130.393 117.881 131.298C118.877 132.202 119.521 133.45 119.692 134.809L125.058 177.392C125.158 178.188 125.093 178.997 124.867 179.765C124.64 180.532 124.258 181.242 123.746 181.845C123.233 182.448 122.602 182.931 121.895 183.262C121.187 183.593 120.419 183.764 119.643 183.764Z" fill="white"/>
<path d="M119.644 184.193H38.5307C37.1047 184.189 35.7282 183.651 34.6567 182.679C33.5852 181.707 32.8912 180.366 32.7037 178.905L27.3383 136.322C27.2303 135.465 27.3004 134.595 27.5438 133.769C27.7873 132.942 28.1985 132.179 28.75 131.53C29.3015 130.881 29.9806 130.361 30.742 130.005C31.5034 129.649 32.3295 129.465 33.1653 129.465H114.279C115.705 129.468 117.082 130.006 118.153 130.979C119.225 131.951 119.919 133.293 120.106 134.754L125.472 177.336C125.58 178.193 125.509 179.063 125.266 179.889C125.022 180.716 124.611 181.479 124.06 182.128C123.508 182.777 122.829 183.297 122.068 183.653C121.306 184.009 120.48 184.193 119.644 184.193V184.193ZM33.1653 130.323C32.4477 130.323 31.7384 130.481 31.0847 130.787C30.431 131.093 29.8479 131.539 29.3744 132.096C28.901 132.653 28.5479 133.309 28.3389 134.018C28.13 134.728 28.0698 135.475 28.1625 136.21L33.5275 178.793C33.6885 180.048 34.2843 181.199 35.2043 182.034C36.1244 182.869 37.3062 183.331 38.5307 183.334H119.644C120.362 183.334 121.071 183.176 121.725 182.87C122.379 182.564 122.962 182.117 123.436 181.56C123.909 181.002 124.262 180.347 124.471 179.638C124.68 178.928 124.74 178.18 124.647 177.445L119.282 134.863C119.121 133.608 118.525 132.457 117.605 131.622C116.685 130.787 115.503 130.325 114.279 130.323H33.1653Z" fill="#292A2E"/>
<path d="M124.229 183.764H43.1154C41.7892 183.764 40.5084 183.266 39.5119 182.361C38.5154 181.457 37.8714 180.209 37.7001 178.85L32.3347 136.267C32.2345 135.471 32.2997 134.662 32.526 133.894C32.7523 133.126 33.1344 132.417 33.647 131.814C34.1595 131.211 34.7905 130.728 35.4981 130.397C36.2056 130.066 36.9733 129.895 37.75 129.895H118.864C120.19 129.895 121.471 130.393 122.467 131.298C123.464 132.202 124.108 133.45 124.279 134.809L129.644 177.392C129.744 178.188 129.679 178.997 129.453 179.765C129.227 180.533 128.845 181.242 128.332 181.845C127.82 182.448 127.188 182.931 126.481 183.262C125.773 183.593 125.006 183.764 124.229 183.764Z" fill="white"/>
<path d="M124.23 184.193H43.1166C41.6906 184.189 40.3141 183.652 39.2425 182.679C38.171 181.707 37.4771 180.366 37.2897 178.905L31.9242 136.322C31.8163 135.465 31.8864 134.595 32.1298 133.769C32.3732 132.942 32.7844 132.179 33.3359 131.53C33.8874 130.881 34.5665 130.361 35.3279 130.005C36.0893 129.649 36.9154 129.465 37.7512 129.465H118.865C120.291 129.468 121.668 130.006 122.739 130.979C123.811 131.951 124.505 133.293 124.692 134.754L130.057 177.336C130.165 178.193 130.095 179.063 129.852 179.89C129.608 180.716 129.197 181.479 128.646 182.128C128.094 182.777 127.415 183.297 126.654 183.653C125.892 184.009 125.066 184.193 124.23 184.193V184.193ZM37.7512 130.323C37.0336 130.323 36.3243 130.481 35.6706 130.787C35.0168 131.093 34.4338 131.539 33.9603 132.096C33.4867 132.653 33.1337 133.309 32.9246 134.018C32.7156 134.728 32.6554 135.475 32.748 136.21L38.1135 178.793C38.2743 180.048 38.87 181.199 39.7901 182.034C40.7102 182.869 41.8921 183.331 43.1166 183.334H124.23C124.948 183.334 125.658 183.176 126.311 182.87C126.965 182.564 127.548 182.117 128.022 181.56C128.496 181.003 128.849 180.347 129.058 179.638C129.267 178.928 129.327 178.18 129.234 177.445L123.868 134.863C123.708 133.608 123.112 132.456 122.192 131.621C121.272 130.786 120.09 130.324 118.865 130.321L37.7512 130.323Z" fill="#292A2E"/>
<path d="M238.629 350.57C238.629 350.57 240.856 362.504 251.667 363.168C262.477 363.833 260.133 372.734 260.133 372.734H218.82V351.402L238.629 350.57Z" fill="black"/>
<path d="M160.033 343.034C160.033 343.034 156.935 354.758 166.352 360.286C175.769 365.815 169.864 372.732 169.864 372.732L132.793 353.883L141.904 334.742L160.033 343.034Z" fill="black"/>
<path d="M126.763 64.9774C126.763 64.9774 132.153 60.7728 133.489 51.0944C134.523 43.6006 127.834 48.4552 127.834 48.4552C127.834 48.4552 128.528 43.0523 124.718 43.5882C120.909 44.124 118.777 49.8008 118.777 49.8008" fill="#0C0C0C"/>
<path d="M105.033 44.2188C105.033 44.2188 86.133 46.3131 92.9653 72.7816L94.6379 72.897L98.0329 73.1323" fill="#0C0C0C"/>
<path d="M123.599 100.424C123.516 100.413 122.594 116.224 104.819 114.847C92.5133 113.895 88.1258 100.402 87.8438 100.402C89.1707 100.11 90.81 99.6681 91.4618 99.5161C92.8819 99.1754 94.1679 98.3959 95.1489 97.2814C96.1298 96.1668 96.7591 94.7701 96.9531 93.2768C97.3133 91.0356 96.7039 79.5686 96.8904 77.3008L115.779 81.6582C115.515 86.4476 113.668 97.551 120.141 99.5161C121.22 99.8411 122.381 100.14 123.599 100.424Z" fill="#DD9071"/>
<path opacity="0.52" d="M116.045 94.9793C115.75 93.9939 115.559 92.978 115.477 91.9498C115.27 89.6032 115.312 87.2401 115.602 84.9029C111.763 84.3673 108.146 82.7296 105.162 80.1758C104.811 81.5145 102.883 87.3639 103.417 88.6365C104.425 91.0413 109.168 94.9793 116.045 94.9793Z" fill="#0C0C0C"/>
<path d="M112.146 91.8494C104.693 91.1586 95.7744 86.2928 95.646 75.8386L95.5297 66.4062C95.4013 55.952 100.61 47.4076 110.134 47.2826C119.658 47.1573 126.881 55.5386 127.01 65.9923L127.061 70.1682C127.055 71.6023 126.953 73.0344 126.758 74.4544C126.27 78.2111 125.512 83.9228 123.046 87.7869C120.716 91.4342 116.906 92.2908 112.146 91.8494Z" fill="#DD9071"/>
<path d="M115.603 82.2933C117.141 82.3653 118.674 82.0628 120.078 81.4101C120.107 81.3973 120.133 81.3787 120.155 81.3554C120.177 81.3321 120.195 81.3046 120.206 81.2743C120.218 81.244 120.224 81.2117 120.224 81.1791C120.223 81.1465 120.217 81.1142 120.204 81.0842C120.192 81.0542 120.174 81.0271 120.151 81.0043C120.129 80.9814 120.102 80.9634 120.073 80.9513C120.044 80.9391 120.012 80.933 119.981 80.9334C119.949 80.9337 119.918 80.9405 119.889 80.9533C116.865 82.2864 114.118 82.0911 111.947 80.3887C111.903 80.3529 111.858 80.3195 111.81 80.2887C111.756 80.2625 111.694 80.2585 111.636 80.2773C111.579 80.2961 111.531 80.3364 111.501 80.3903C111.471 80.4442 111.461 80.5077 111.475 80.5684C111.488 80.629 111.522 80.6824 111.572 80.718C111.589 80.7292 111.617 80.7519 111.655 80.7833C112.796 81.6817 114.171 82.2075 115.603 82.2933Z" fill="#0C0C0C"/>
<path d="M115.53 84.6513C115.808 84.6693 116.087 84.6624 116.363 84.6307C116.427 84.6238 116.485 84.5911 116.525 84.5399C116.565 84.4887 116.583 84.4231 116.577 84.3577C116.57 84.2922 116.538 84.2322 116.489 84.1908C116.439 84.1494 116.376 84.13 116.313 84.137C114.648 84.3199 113.854 83.5316 113.82 83.4977C113.774 83.4532 113.714 83.4288 113.651 83.4297C113.589 83.4306 113.529 83.4567 113.485 83.5024C113.44 83.5481 113.415 83.6099 113.414 83.6746C113.413 83.7393 113.437 83.8018 113.48 83.8489C114.053 84.3529 114.777 84.6364 115.53 84.6513Z" fill="#0C0C0C"/>
<path d="M123.865 72.1789C124.513 72.1789 125.038 71.636 125.038 70.9664C125.038 70.2968 124.513 69.7539 123.865 69.7539C123.217 69.7539 122.691 70.2968 122.691 70.9664C122.691 71.636 123.217 72.1789 123.865 72.1789Z" fill="#0C0C0C"/>
<path d="M112.404 71.4367C113.052 71.4367 113.577 70.8938 113.577 70.2242C113.577 69.5546 113.052 69.0117 112.404 69.0117C111.756 69.0117 111.23 69.5546 111.23 70.2242C111.23 70.8938 111.756 71.4367 112.404 71.4367Z" fill="#0C0C0C"/>
<path d="M96.279 79.0156C93.3847 79.0538 90.9992 75.8844 90.9614 72.8931C90.9236 69.9018 93.2505 68.2218 96.1448 68.1836L97.6608 70.168L98.7667 78.983L96.279 79.0156Z" fill="#DD9071"/>
<path d="M99.1542 74.209C99.1542 74.209 100.132 59.4167 104.472 58.5035C107.363 57.8951 114.372 62.1323 120.865 60.8524C123.706 60.2943 126.402 61.0195 126.676 62.4058C126.785 62.955 128.555 55.064 124.106 49.0771C120.565 44.3114 108.975 42.9632 103.702 44.5261C89.1022 48.8547 95.5449 68.8349 95.5449 68.8349L96.1959 73.9342L99.1542 74.209Z" fill="#0C0C0C"/>
<path d="M117.349 78.8035C117.355 78.8039 117.362 78.8039 117.368 78.8035C118.301 78.7936 119.864 78.67 119.858 77.9487C119.851 77.351 118.206 70.9181 118.018 70.1865C117.997 70.1295 117.957 70.0825 117.904 70.0546C117.852 70.0267 117.791 70.0199 117.734 70.0356C117.677 70.0513 117.628 70.0883 117.596 70.1394C117.564 70.1905 117.552 70.2522 117.561 70.3123C118.292 73.1614 119.38 77.5477 119.385 77.9547C119.295 78.1264 118.331 78.3029 117.365 78.3132C117.304 78.3145 117.246 78.34 117.203 78.3843C117.16 78.4287 117.135 78.4885 117.133 78.5514C117.131 78.6143 117.153 78.6756 117.193 78.7225C117.234 78.7694 117.291 78.7984 117.351 78.8035H117.349Z" fill="#0C0C0C"/>
<path d="M120.536 64.3927C121.517 64.1139 122.552 64.1139 123.532 64.3927C124.013 64.5265 124.473 64.7343 124.894 65.0093C125.311 65.2784 125.694 65.601 126.032 65.9693C126.097 66.0343 126.135 66.1229 126.137 66.2163C126.14 66.3096 126.107 66.4002 126.045 66.4687C125.984 66.5372 125.899 66.5781 125.809 66.5827C125.718 66.5872 125.63 66.5551 125.562 66.4931L125.541 66.4742C125.228 66.1742 124.879 65.9162 124.503 65.7061C124.134 65.4972 123.736 65.3474 123.324 65.2617C122.512 65.0854 121.67 65.134 120.882 65.4025L120.849 65.4146C120.719 65.4621 120.576 65.4542 120.452 65.3928C120.328 65.3314 120.232 65.2215 120.186 65.0872C120.14 64.9529 120.148 64.8052 120.207 64.6767C120.266 64.5481 120.373 64.4492 120.503 64.4017L120.536 64.3927Z" fill="#0C0C0C"/>
<path d="M113.594 64.9988C112.848 64.6242 112.02 64.4599 111.193 64.5227C110.773 64.5509 110.36 64.6447 109.967 64.8009C109.568 64.9575 109.189 65.1652 108.84 65.4191L108.818 65.4346C108.743 65.4842 108.652 65.5021 108.565 65.4845C108.478 65.467 108.4 65.4153 108.349 65.3402C108.297 65.2652 108.276 65.1725 108.289 65.0815C108.302 64.9905 108.348 64.9081 108.418 64.8515C108.802 64.5332 109.222 64.2661 109.67 64.0564C110.124 63.8423 110.606 63.6996 111.1 63.633C111.595 63.5611 112.098 63.5598 112.593 63.6292C113.102 63.6945 113.599 63.8343 114.069 64.0444C114.196 64.1013 114.295 64.2079 114.346 64.3408C114.397 64.4736 114.394 64.6218 114.339 64.7528C114.284 64.8837 114.181 64.9867 114.052 65.039C113.924 65.0914 113.78 65.0888 113.654 65.0319C113.644 65.0276 113.634 65.0228 113.625 65.0177L113.594 64.9988Z" fill="#0C0C0C"/>
<path d="M119.14 54.2098C121.282 53.7472 122.485 50.7304 121.826 47.4715C121.167 44.2127 118.897 41.9459 116.754 42.4085C114.612 42.8711 113.409 45.8879 114.068 49.1467C114.727 52.4056 116.998 54.6724 119.14 54.2098Z" fill="#0C0C0C"/>
<path d="M137.072 339.726L168.333 237.803H111.667C100.284 237.803 95.5391 227.827 95.5391 216.064C95.5391 204.3 106.729 193.988 118.112 193.988H194.59C201.533 193.988 209.317 198.376 213.128 204.374C216.938 210.372 215.908 219.666 213.147 226.25L163.086 351.906" fill="#262626"/>
<path opacity="0.8" d="M137.072 339.726L168.333 237.803H111.667C100.284 237.803 95.5391 227.827 95.5391 216.064C95.5391 204.3 106.729 193.988 118.112 193.988H194.59C201.533 193.988 209.317 198.376 213.128 204.374C216.938 210.372 215.908 219.666 213.147 226.25L163.086 351.906" fill="#0A0A0A"/>
<path d="M216.445 361.652L164.174 237.801L95.5389 237.796C79.4568 236.493 72.0914 227.385 72.3257 215.624C72.5567 204.012 78.2458 192.543 89.4307 192.543H181.938C190.213 192.719 196.724 202.17 199.794 210.114L243.249 354.069" fill="#262626"/>
<path d="M67.6439 192.685C67.6439 192.685 64.5958 213.227 69.4274 224.648C75.4592 238.907 98.0708 237.796 98.0708 237.796L96.7967 192.543L67.6439 192.685Z" fill="#262626"/>
<path d="M201.76 192.28L153.278 181.897C151.258 181.465 149.376 180.512 147.806 179.129C146.237 177.745 145.03 175.974 144.298 173.981L125.229 122.05C124.649 120.491 124.372 118.83 124.414 117.16C124.457 115.491 124.818 113.846 125.478 112.322C126.137 110.797 127.081 109.422 128.257 108.275C129.432 107.129 130.814 106.234 132.325 105.641C133.836 105.049 135.445 104.77 137.06 104.823C138.676 104.875 140.265 105.256 141.737 105.945C143.209 106.634 144.535 107.616 145.639 108.836C146.742 110.056 147.602 111.489 148.168 113.053L164.849 158.478L206.74 167.449C206.74 167.449 202.601 192.46 201.76 192.28Z" fill="#B6D4FA"/>
<path d="M145.687 135.238C145.128 142.036 141.159 184.446 140.619 192.819H67.6775C67.2583 185.267 65.3764 152.246 63.7873 137.476C62.2701 123.384 60.1435 116.972 61.8908 112.592C64.9726 104.869 74.782 101.419 81.4249 100.49C85.4808 99.9226 91.5816 99.5156 91.5816 99.5156C91.5816 99.5156 92.0984 110.315 104.415 110.916C121.182 111.732 120.063 99.5156 120.146 99.5156C122.862 99.5156 137.647 101.557 141.344 104.047C146.566 107.565 148.109 112.358 148.17 116.763C148.241 121.833 146.322 127.527 145.687 135.238Z" fill="#B6D4FA"/>
<path d="M142.817 169.891H142.8C142.773 169.889 142.746 169.881 142.722 169.868C142.698 169.855 142.676 169.837 142.659 169.816C142.641 169.794 142.628 169.769 142.619 169.742C142.611 169.715 142.608 169.687 142.61 169.659L144.504 146.151C144.505 146.122 144.512 146.094 144.525 146.069C144.537 146.044 144.554 146.021 144.575 146.003C144.596 145.984 144.62 145.971 144.646 145.962C144.673 145.954 144.7 145.951 144.728 145.954C144.755 145.957 144.781 145.965 144.806 145.977C144.83 145.99 144.851 146.008 144.869 146.03C144.887 146.051 144.9 146.076 144.908 146.103C144.917 146.13 144.92 146.158 144.917 146.186L143.024 169.695C143.019 169.748 142.996 169.798 142.958 169.834C142.919 169.871 142.869 169.891 142.817 169.891Z" fill="#0C0C0C"/>
<path d="M154.547 188.157L170.552 137.312C170.833 136.419 171.381 135.64 172.116 135.088C172.852 134.536 173.738 134.238 174.647 134.238H239.851C240.531 134.238 241.201 134.404 241.806 134.723C242.412 135.042 242.936 135.505 243.335 136.073C243.735 136.642 243.998 137.3 244.104 137.994C244.211 138.687 244.156 139.397 243.946 140.065L227.942 190.91C227.66 191.804 227.113 192.582 226.377 193.134C225.641 193.686 224.756 193.984 223.847 193.984H158.642C157.963 193.984 157.292 193.818 156.687 193.499C156.081 193.18 155.557 192.717 155.158 192.149C154.758 191.58 154.495 190.922 154.389 190.228C154.283 189.535 154.337 188.825 154.547 188.157Z" fill="#292A2E"/>
<path opacity="0.2" d="M154.547 188.157L170.552 137.312C170.833 136.419 171.381 135.64 172.116 135.088C172.852 134.536 173.738 134.238 174.647 134.238H239.851C240.531 134.238 241.201 134.404 241.806 134.723C242.412 135.042 242.936 135.505 243.335 136.073C243.735 136.642 243.998 137.3 244.104 137.994C244.211 138.687 244.156 139.397 243.946 140.065L227.942 190.91C227.66 191.804 227.113 192.582 226.377 193.134C225.641 193.686 224.756 193.984 223.847 193.984H158.642C157.963 193.984 157.292 193.818 156.687 193.499C156.081 193.18 155.557 192.717 155.158 192.149C154.758 191.58 154.495 190.922 154.389 190.228C154.283 189.535 154.337 188.825 154.547 188.157Z" fill="white"/>
<path d="M167.601 189.859H123.954C122.866 189.859 121.984 190.771 121.984 191.894V191.947C121.984 193.071 122.866 193.982 123.954 193.982H167.601C168.689 193.982 169.571 193.071 169.571 191.947V191.894C169.571 190.771 168.689 189.859 167.601 189.859Z" fill="#292A2E"/>
<path opacity="0.2" d="M167.601 189.859H123.954C122.866 189.859 121.984 190.771 121.984 191.894V191.947C121.984 193.071 122.866 193.982 123.954 193.982H167.601C168.689 193.982 169.571 193.071 169.571 191.947V191.894C169.571 190.771 168.689 189.859 167.601 189.859Z" fill="white"/>
<path d="M199.245 173.658C203.022 173.658 206.083 170.494 206.083 166.591C206.083 162.688 203.022 159.523 199.245 159.523C195.468 159.523 192.406 162.688 192.406 166.591C192.406 170.494 195.468 173.658 199.245 173.658Z" fill="white"/>
<path d="M130.008 140.006C129.85 139.582 129.552 139.228 129.167 139.008C128.782 138.787 128.335 138.714 127.903 138.8C127.911 138.779 127.915 138.757 127.916 138.735L128.497 138.466C128.905 138.287 129.24 137.968 129.446 137.563C129.652 137.158 129.716 136.692 129.628 136.244C129.567 135.964 129.446 135.701 129.275 135.475C129.104 135.249 128.886 135.065 128.638 134.937C128.39 134.808 128.117 134.738 127.84 134.731C127.562 134.725 127.286 134.782 127.033 134.899L125.661 135.533C125.661 135.527 125.661 135.522 125.658 135.516C125.653 135.505 125.646 135.494 125.638 135.484C125.976 135.221 126.218 134.847 126.324 134.424C126.43 134 126.394 133.552 126.222 133.152C125.841 132.087 124.491 132.002 123.598 132.414L120.011 133.909L121.094 132.775C121.433 132.405 121.623 131.915 121.627 131.406C121.631 130.896 121.447 130.404 121.113 130.029C120.934 129.842 120.72 129.694 120.483 129.595C120.247 129.496 119.994 129.448 119.739 129.454C119.485 129.459 119.234 129.518 119.002 129.627C118.77 129.736 118.562 129.893 118.391 130.088L105.637 144.483L109.999 148.825C111.353 150.173 113.067 151.073 114.919 151.409C116.772 151.744 118.679 151.5 120.397 150.708L128.17 147.107C128.578 146.928 128.913 146.609 129.119 146.204C129.325 145.798 129.389 145.332 129.301 144.884C129.212 144.481 129.002 144.119 128.7 143.848C128.399 143.578 128.021 143.414 127.623 143.381C127.628 143.359 127.628 143.336 127.623 143.314C127.619 143.291 127.611 143.27 127.598 143.251C127.586 143.232 127.57 143.216 127.552 143.204C127.534 143.191 127.513 143.182 127.491 143.178L128.927 142.516C129.381 142.317 129.746 141.947 129.946 141.481C130.147 141.015 130.169 140.488 130.008 140.006Z" fill="#DD9071"/>
<path opacity="0.2" d="M123.068 136.75C123.026 136.75 122.987 136.736 122.955 136.709C122.923 136.682 122.901 136.644 122.894 136.602C122.886 136.561 122.893 136.517 122.913 136.48C122.933 136.443 122.964 136.414 123.003 136.399L125.429 135.411C125.45 135.402 125.473 135.398 125.497 135.398C125.52 135.399 125.543 135.404 125.564 135.414C125.585 135.423 125.604 135.437 125.62 135.454C125.636 135.471 125.649 135.491 125.657 135.514C125.666 135.536 125.67 135.56 125.67 135.584C125.669 135.608 125.664 135.631 125.655 135.653C125.646 135.675 125.633 135.695 125.616 135.711C125.599 135.728 125.58 135.741 125.558 135.75L123.132 136.737C123.111 136.746 123.09 136.75 123.068 136.75Z" fill="#0C0C0C"/>
<path opacity="0.2" d="M124.422 140.295C124.381 140.295 124.341 140.28 124.31 140.253C124.278 140.227 124.257 140.189 124.249 140.148C124.242 140.106 124.248 140.063 124.267 140.026C124.287 139.989 124.318 139.96 124.356 139.944L127.675 138.565C127.717 138.549 127.764 138.552 127.806 138.571C127.847 138.59 127.879 138.625 127.896 138.669C127.913 138.712 127.913 138.761 127.897 138.804C127.88 138.848 127.847 138.883 127.806 138.902L124.488 140.282C124.467 140.291 124.444 140.295 124.422 140.295Z" fill="#0C0C0C"/>
<path opacity="0.2" d="M125.868 144.146C125.826 144.146 125.786 144.131 125.755 144.103C125.723 144.076 125.702 144.038 125.694 143.996C125.687 143.954 125.694 143.911 125.714 143.874C125.735 143.837 125.767 143.808 125.806 143.793L127.388 143.18C127.431 143.163 127.48 143.164 127.523 143.184C127.565 143.204 127.598 143.241 127.615 143.286C127.631 143.331 127.63 143.381 127.611 143.425C127.591 143.469 127.556 143.504 127.512 143.521L125.93 144.134C125.91 144.142 125.889 144.146 125.868 144.146Z" fill="#0C0C0C"/>
<path d="M120.26 155.912L59.0868 182.077C56.8812 183.01 54.4604 183.258 52.1202 182.793C49.7799 182.327 47.6216 181.167 45.9089 179.454C44.1962 177.742 43.0033 175.551 42.476 173.149C41.9486 170.747 42.1097 168.238 42.9394 165.929L61.1848 114.427C63.5436 107.863 70.1886 104.089 76.5403 106.527C79.5902 107.698 82.0652 110.073 83.4208 113.129C84.7765 116.186 84.9017 119.674 83.769 122.826L75.4468 147.202L111.299 132.917" fill="#B6D4FA"/>
<path d="M120.113 156.143C120.081 156.142 120.049 156.132 120.022 156.114C119.995 156.095 119.974 156.068 119.961 156.037L111.06 133.196L75.3278 147.448C75.2982 147.459 75.266 147.462 75.2349 147.455C75.2039 147.449 75.1755 147.433 75.1531 147.409C75.1307 147.386 75.1153 147.357 75.1089 147.325C75.1024 147.292 75.1052 147.259 75.1168 147.229L80.6421 132.572C80.6579 132.531 80.689 132.497 80.7287 132.479C80.7684 132.461 80.8134 132.46 80.8538 132.476C80.8942 132.493 80.9266 132.525 80.9441 132.566C80.9615 132.607 80.9624 132.653 80.9466 132.695L75.5559 146.994L111.093 132.82C111.133 132.804 111.178 132.805 111.217 132.822C111.257 132.84 111.288 132.873 111.304 132.914L120.265 155.91C120.28 155.952 120.28 155.998 120.263 156.04C120.246 156.081 120.214 156.113 120.174 156.131C120.155 156.139 120.134 156.143 120.113 156.143Z" fill="#0C0C0C"/>
<path d="M64.1022 151.984C64.0639 151.984 64.0268 151.971 63.9972 151.946C63.9676 151.92 63.9475 151.885 63.9404 151.847C63.9332 151.808 63.9395 151.767 63.9582 151.733C63.9768 151.698 64.0066 151.672 64.0424 151.658L75.234 147.106C75.254 147.098 75.2755 147.094 75.2972 147.094C75.3189 147.094 75.3404 147.098 75.3603 147.107C75.3803 147.116 75.3984 147.129 75.4135 147.145C75.4286 147.161 75.4405 147.18 75.4485 147.201C75.4565 147.222 75.4603 147.244 75.4599 147.266C75.4594 147.289 75.4547 147.311 75.4459 147.331C75.4371 147.352 75.4244 147.37 75.4087 147.386C75.3929 147.401 75.3743 147.413 75.354 147.421L64.162 151.972C64.143 151.98 64.1227 151.984 64.1022 151.984Z" fill="#0C0C0C"/>
<path d="M66.7109 179.022C66.673 179.022 66.6362 179.009 66.6068 178.984C66.5775 178.959 66.5574 178.925 66.55 178.886C66.5426 178.848 66.5484 178.808 66.5664 178.773C66.5844 178.739 66.6135 178.712 66.6486 178.697L120.051 155.821C120.071 155.813 120.093 155.809 120.114 155.809C120.135 155.809 120.157 155.813 120.177 155.822C120.196 155.83 120.214 155.843 120.229 155.858C120.245 155.874 120.257 155.893 120.265 155.913C120.273 155.934 120.277 155.955 120.277 155.978C120.277 156 120.273 156.022 120.265 156.042C120.256 156.063 120.244 156.081 120.229 156.097C120.214 156.113 120.196 156.125 120.176 156.134L66.7732 179.009C66.7535 179.018 66.7323 179.022 66.7109 179.022Z" fill="#0C0C0C"/>
<path d="M337.832 316.695C337.722 316.695 337.617 316.65 337.539 316.569C336.953 315.964 335.999 304.866 333.43 271.821C332.378 258.3 331.384 245.529 330.66 237.768C330.608 237.213 330.4 237.149 330.332 237.128C329.34 236.818 326.322 239.277 324.637 241.43C324.568 241.519 324.467 241.576 324.358 241.588C324.248 241.6 324.139 241.566 324.053 241.495C323.967 241.423 323.912 241.319 323.901 241.206C323.889 241.093 323.921 240.979 323.991 240.891C325.105 239.467 328.736 235.734 330.57 236.305C330.941 236.42 331.401 236.752 331.487 237.685C332.212 245.453 333.206 258.228 334.258 271.752C335.819 291.833 337.589 314.582 338.17 316.015C338.214 316.079 338.241 316.155 338.247 316.234C338.252 316.312 338.237 316.391 338.202 316.462C338.167 316.532 338.114 316.591 338.049 316.632C337.984 316.673 337.909 316.695 337.832 316.695Z" fill="#8D8D8D"/>
<path d="M329.591 252.007C336.485 246.296 338.77 237.407 334.695 232.153C330.62 226.899 321.728 227.269 314.834 232.98C307.94 238.691 305.655 247.58 309.73 252.834C313.806 258.088 322.698 257.718 329.591 252.007Z" fill="#B6D4FA"/>
<path opacity="0.2" d="M329.591 252.007C336.485 246.296 338.77 237.407 334.695 232.153C330.62 226.899 321.728 227.269 314.834 232.98C307.94 238.691 305.655 247.58 309.73 252.834C313.806 258.088 322.698 257.718 329.591 252.007Z" fill="white"/>
<path d="M311.665 254.172C311.625 254.172 311.587 254.16 311.553 254.138C311.52 254.116 311.493 254.085 311.477 254.048C311.46 254.011 311.454 253.97 311.459 253.93C311.464 253.889 311.48 253.851 311.505 253.82L331.152 229.334C331.169 229.312 331.19 229.294 331.215 229.28C331.239 229.266 331.265 229.258 331.293 229.255C331.32 229.252 331.348 229.255 331.375 229.263C331.401 229.272 331.425 229.285 331.447 229.303C331.468 229.322 331.485 229.344 331.498 229.369C331.511 229.395 331.519 229.422 331.521 229.451C331.523 229.479 331.52 229.508 331.511 229.535C331.503 229.562 331.489 229.587 331.471 229.609L311.825 254.094C311.805 254.118 311.781 254.138 311.753 254.151C311.725 254.165 311.695 254.172 311.665 254.172Z" fill="white"/>
<path d="M342.115 311.445C342.049 311.445 341.983 311.428 341.924 311.397C341.865 311.366 341.815 311.32 341.776 311.264C341.738 311.208 341.713 311.144 341.703 311.076C341.694 311.008 341.701 310.939 341.722 310.874L349.102 288.94C349.319 288.296 349.69 287.718 350.179 287.259C350.669 286.801 351.261 286.477 351.903 286.317C352.545 286.157 353.216 286.166 353.854 286.343C354.491 286.52 355.076 286.86 355.554 287.331L359.455 291.183C359.535 291.262 359.581 291.37 359.583 291.484C359.586 291.597 359.544 291.708 359.468 291.79C359.392 291.872 359.288 291.92 359.177 291.923C359.067 291.925 358.961 291.882 358.881 291.804L354.979 287.952C354.602 287.58 354.141 287.312 353.637 287.172C353.134 287.033 352.605 287.026 352.098 287.152C351.591 287.278 351.124 287.534 350.737 287.896C350.351 288.257 350.059 288.713 349.887 289.222L342.507 311.156C342.479 311.24 342.426 311.313 342.356 311.365C342.285 311.417 342.201 311.445 342.115 311.445Z" fill="#8D8D8D"/>
<path d="M370.358 303.328C375.467 299.149 375.163 289.957 369.68 282.798C364.196 275.638 355.609 273.222 350.501 277.401C345.392 281.581 345.695 290.773 351.179 297.932C356.662 305.092 365.249 307.507 370.358 303.328Z" fill="#B6D4FA"/>
<path d="M334.478 315.293C334.385 315.293 334.294 315.261 334.221 315.201C334.147 315.141 334.096 315.057 334.074 314.964L321.69 261.448C321.605 261.083 321.425 260.75 321.169 260.484C320.912 260.218 320.59 260.031 320.238 259.942C319.885 259.853 319.515 259.867 319.17 259.981C318.824 260.095 318.515 260.306 318.278 260.589L314.46 265.149C314.425 265.191 314.381 265.226 314.332 265.251C314.284 265.277 314.23 265.292 314.176 265.296C314.122 265.3 314.067 265.293 314.015 265.275C313.963 265.257 313.915 265.229 313.874 265.192C313.833 265.155 313.799 265.11 313.775 265.06C313.75 265.01 313.735 264.955 313.732 264.898C313.728 264.842 313.734 264.786 313.752 264.732C313.769 264.679 313.796 264.629 313.832 264.586L317.65 260.027C317.987 259.625 318.426 259.326 318.917 259.164C319.408 259.002 319.933 258.984 320.434 259.11C320.935 259.236 321.392 259.503 321.756 259.881C322.12 260.258 322.376 260.732 322.496 261.25L334.881 314.766C334.906 314.876 334.888 314.993 334.83 315.09C334.773 315.187 334.68 315.257 334.573 315.283C334.542 315.29 334.51 315.294 334.478 315.293Z" fill="#8D8D8D"/>
<path d="M329.91 277.04C331.415 268.043 327.431 259.819 321.011 258.671C314.59 257.524 308.165 263.887 306.66 272.885C305.154 281.882 309.138 290.106 315.559 291.253C321.979 292.401 328.404 286.037 329.91 277.04Z" fill="#B6D4FA"/>
<path d="M337.831 316.692C337.813 316.692 337.796 316.691 337.779 316.689C337.67 316.675 337.57 316.617 337.502 316.527C337.434 316.437 337.404 316.323 337.417 316.21L345.326 249.851C345.412 249.128 345.698 248.446 346.15 247.887C346.603 247.328 347.201 246.916 347.875 246.7C348.548 246.485 349.268 246.475 349.947 246.672C350.625 246.869 351.235 247.265 351.701 247.811L360.74 258.392C360.813 258.477 360.85 258.589 360.843 258.703C360.836 258.816 360.786 258.923 360.703 258.998C360.621 259.073 360.513 259.112 360.403 259.105C360.293 259.098 360.19 259.046 360.117 258.96L351.078 248.379C350.717 247.957 350.246 247.651 349.721 247.499C349.197 247.347 348.64 247.354 348.12 247.521C347.599 247.688 347.136 248.007 346.787 248.439C346.438 248.872 346.217 249.399 346.151 249.958L338.241 316.315C338.228 316.419 338.18 316.514 338.104 316.584C338.029 316.653 337.932 316.692 337.831 316.692Z" fill="#8D8D8D"/>
<path d="M370.012 264.273C373.166 258.381 369.455 250.021 361.724 245.602C353.993 241.182 345.169 242.376 342.015 248.268C338.861 254.161 342.572 262.52 350.303 266.94C358.034 271.36 366.858 270.166 370.012 264.273Z" fill="#B6D4FA"/>
<path opacity="0.2" d="M370.358 303.328C375.467 299.149 375.163 289.957 369.68 282.798C364.196 275.638 355.609 273.222 350.501 277.401C345.392 281.581 345.695 290.773 351.179 297.932C356.662 305.092 365.249 307.507 370.358 303.328Z" fill="white"/>
<path opacity="0.5" d="M329.91 277.04C331.415 268.043 327.431 259.819 321.011 258.671C314.59 257.524 308.165 263.887 306.66 272.885C305.154 281.882 309.138 290.106 315.559 291.253C321.979 292.401 328.404 286.037 329.91 277.04Z" fill="white"/>
<path opacity="0.5" d="M370.012 264.273C373.166 258.381 369.455 250.021 361.724 245.602C353.993 241.182 345.169 242.376 342.015 248.268C338.861 254.161 342.572 262.52 350.303 266.94C358.034 271.36 366.858 270.166 370.012 264.273Z" fill="white"/>
<path d="M347.946 373H327.715L324.363 306.105H351.298L347.946 373Z" fill="#292A2E"/>
<path opacity="0.3" d="M347.946 373H327.715L324.363 306.105H351.298L347.946 373Z" fill="white"/>
<path d="M370.359 303.54C370.328 303.54 370.297 303.533 370.269 303.519C370.24 303.505 370.215 303.484 370.196 303.459L350.338 277.532C350.304 277.487 350.288 277.43 350.294 277.374C350.301 277.317 350.329 277.265 350.372 277.23C350.415 277.195 350.47 277.178 350.525 277.185C350.579 277.192 350.629 277.22 350.664 277.265L370.522 303.192C370.546 303.223 370.561 303.261 370.565 303.301C370.57 303.341 370.563 303.382 370.546 303.418C370.529 303.455 370.503 303.485 370.47 303.507C370.437 303.528 370.398 303.54 370.359 303.54Z" fill="white"/>
<path d="M368.689 266.352C368.645 266.351 368.602 266.336 368.567 266.309L343.156 247.134C343.134 247.118 343.115 247.097 343.101 247.073C343.086 247.049 343.077 247.022 343.073 246.994C343.069 246.966 343.07 246.938 343.076 246.91C343.083 246.883 343.094 246.857 343.11 246.834C343.126 246.811 343.147 246.792 343.17 246.777C343.193 246.763 343.219 246.753 343.246 246.749C343.273 246.744 343.301 246.746 343.327 246.752C343.354 246.759 343.379 246.771 343.401 246.787L368.812 265.963C368.846 265.99 368.872 266.028 368.885 266.071C368.898 266.113 368.898 266.159 368.884 266.202C368.871 266.245 368.845 266.282 368.81 266.308C368.775 266.335 368.732 266.349 368.689 266.35V266.352Z" fill="white"/>
<path d="M314.528 290.974C314.51 290.974 314.492 290.971 314.474 290.966C314.421 290.952 314.376 290.916 314.348 290.867C314.321 290.817 314.313 290.759 314.327 290.704L322.417 259.381C322.423 259.354 322.435 259.328 322.452 259.305C322.468 259.282 322.489 259.263 322.513 259.249C322.537 259.234 322.563 259.225 322.59 259.221C322.618 259.217 322.645 259.219 322.672 259.226C322.699 259.233 322.724 259.246 322.745 259.264C322.767 259.281 322.785 259.303 322.799 259.327C322.813 259.352 322.821 259.38 322.825 259.408C322.828 259.436 322.826 259.465 322.818 259.492L314.729 290.814C314.717 290.86 314.691 290.901 314.655 290.929C314.618 290.958 314.574 290.974 314.528 290.974Z" fill="white"/>
</g>
<defs>
<clipPath id="clip0_172_1706">
<rect width="363" height="370" fill="white" transform="translate(11 26)"/>
</clipPath>
</defs>
</svg>
