<?xml version="1.0" encoding="utf-8"?>
<!-- Generator: Adobe Illustrator 27.1.0, SVG Export Plug-In . SVG Version: 6.00 Build 0)  -->
<svg version="1.1" id="Layer_1" xmlns="http://www.w3.org/2000/svg" xmlns:xlink="http://www.w3.org/1999/xlink" x="0px" y="0px"
	 viewBox="0 0 1024 1024" style="enable-background:new 0 0 1024 1024;" xml:space="preserve">
<style type="text/css">
	.st0{fill:#ADC8AA;}
</style>
<g id="Layer_1_00000143592729734613147720000011442308682790756254_">
	<path class="st0" d="M452.1,561.7c1.1-0.1,1.4-0.4,2.3,0.3c-0.9,1.5-2.9,2.5-4.4,3.4c-4.2,0-8.4-0.6-12.6-1c-2-0.2-3.9-0.7-5.8-1.1
		C438.4,563,445.3,562.2,452.1,561.7z"/>
	<path class="st0" d="M351,548.7c0.8-0.1,1.7-0.1,2.5-0.1l0.7,0.7c0.2,1.8-0.1,3.6-0.4,5.4c-5.7-0.8-11.5-1.4-17.2-2.3l-7.7-1.7
		C336.3,549.8,343.6,549.6,351,548.7z"/>
	<path class="st0" d="M374.7,321.1c1.6-0.1,3.4,0,4.9,0.5c1.8,0.6,3.4,1.9,4.2,3.6c1,2.1,0.8,4.5,0,6.6c-1.5,3.7-4,5.3-7.5,7
		c-1.8,0-3.6-0.1-5.3-0.9c-0.3-0.1-0.6-0.3-0.8-0.5c-0.3-0.2-0.5-0.3-0.8-0.5c-0.2-0.2-0.5-0.4-0.7-0.6s-0.4-0.5-0.6-0.7
		s-0.4-0.5-0.6-0.8s-0.3-0.5-0.5-0.8c-0.1-0.3-0.3-0.6-0.4-0.9s-0.2-0.6-0.3-0.9c-0.1-0.3-0.1-0.6-0.2-0.8c0-0.3-0.1-0.6-0.1-0.9
		s0-0.6,0-0.9s0-0.6,0.1-0.9c0-0.3,0.1-0.6,0.2-0.9s0.2-0.6,0.3-0.8c0.1-0.3,0.2-0.5,0.3-0.8c0.1-0.3,0.3-0.5,0.4-0.8
		C369,322.8,371.6,321.8,374.7,321.1z"/>
	<path class="st0" d="M380.5,520.2c5,0.2,10,1.3,15,2c5.6,0.8,11.2,1,16.9,1.1c7.4,0,21.1-2.6,27.1-1.2l0.5,0.9c0,1.7-0.4,3-0.9,4.6
		c-4.3,2.5-10,3.1-14.8,3.5c-7.9,0.7-37.5,1.7-42.6-3.9C380,525.5,380.4,522.4,380.5,520.2z"/>
	<path class="st0" d="M440.3,530.6c1.1-0.1,1.9-0.1,2.8,0.6c1.9,1.5,3.3,3.7,3.5,6.1c-0.3,1.1-0.6,1.9-1.6,2.6
		c-6.2,4.6-38.2,4.8-47.2,4.5c-5-0.2-10-0.7-14.9-1.3c-0.7-0.2-1.4-0.4-2.1-0.6c-1.7-0.6-3-1.7-3.7-3.3c-0.7-1.5-1-3.7-0.1-5.2
		c1.1-1.9,3.3-2.5,5.3-2.7c4.5-0.3,9,1.5,13.4,2c3.7,0.4,7.5,0.6,11.2,0.7c3.8,0.1,7.5,0,11.2-0.3c3.7-0.2,7.5-0.6,11.2-1.2
		S436.7,531.4,440.3,530.6z"/>
	<path class="st0" d="M467.8,557.8c4.2,0.2,9.1,2.1,13.2,3.1c7.4,1.8,15.2,3,22.8,3.2c21.3,0.8,42.7-3.8,63.9-3.6
		c2.3,0,6.2-0.1,7.8,1.6c-0.1,0.1-0.1,0.3-0.2,0.4c-1.4,1.8-4.6,2-6.7,2.3c-14.5,2.2-28.9,4.6-43.5,6c-10.2,0.9-53.2,1.6-59.3-4.6
		c-0.9-0.9-1.4-1.8-1.3-3C464.8,560.9,466.2,559.4,467.8,557.8z"/>
	<path class="st0" d="M428.9,362.5c1.7,1.1,3.3,2.3,5,3.4c0.7,13.8,2.7,149.8-0.2,153.9c-1.6-0.8-2.8-1.5-3.7-3
		c-1.8-3-2-7.5-2.3-10.9c-0.8-10.6-0.6-21.3-0.6-32v-46.4v-34.2C427.2,383.2,426.6,372.4,428.9,362.5z"/>
	<path class="st0" d="M411.1,356.1c0.9,0.4,2.2,1,2.7,1.8c1.9,2.8,3.3,130.5,2.5,145.3c-0.1,2.7-0.4,5.4-0.9,8.1
		c-0.5,2.7-1.1,5.3-1.9,7.9c-0.7-0.1-1.6-0.2-2.2-0.5c-1-0.5-1.6-1.1-2-2.1c-1.7-4.3-1.3-11.2-1.4-15.9c-0.6-26.6,0.4-53.4,0.7-80
		c0.2-18.6-0.6-37.5,0.7-56C409.6,361.5,409.8,359,411.1,356.1z"/>
	<path class="st0" d="M622,356.8c0.5,0.2,0.9,0.5,1.3,0.9c2.3,7.1,3.9,155.5,2,160.4c-0.5,1.4-1.8,1.5-3.1,1.9
		c-1.6-0.4-2.9-0.4-3.8-1.9c-0.7-1-0.7-2.6-0.8-3.7c-0.8-34.8,0-69.8,0.3-104.7l0.2-32.5c0-5.9-0.3-12.3,0.5-18.1
		C619.4,357.7,620.6,357.4,622,356.8z"/>
	<path class="st0" d="M602.9,356.9c0.7,0.2,1.1,0.6,1.7,1c1.7,5,2.9,154.1,1.3,160.7c-1.2,1-3,1-4.6,1.2c-0.8-0.2-2.5-0.6-2.8-1.4
		c-1.1-2.4-0.2-37.8-0.1-42.4l-0.1-73c-0.1-11-2.2-33.4,0.3-43.2C599.6,358.4,601.3,357.7,602.9,356.9z"/>
	<path class="st0" d="M389.4,357.6h7c0.8,32.7,0.5,65.5,0.5,98.3c0,15.1,1.3,51.1-2.2,64.3c-2.3-0.7-4.5-1.7-6.7-2.6L389.4,357.6z"
		/>
	<path class="st0" d="M637.7,356.3l7.6,0.4c-0.9,16.9-0.2,33.9,0,50.8l0.5,69.6c0,7.3,0.1,14.6,0.2,21.9c0.1,6.2,0.6,12.6-0.3,18.7
		c-2.8,1.3-6.1,1.3-9.1,1.6c-0.9-21.8-0.4-43.9-0.3-65.8C636.6,421.1,637,388.7,637.7,356.3z"/>
	<path class="st0" d="M591.2,363.4c1.1,4.7,0.6,152.1-0.4,156.3c-0.7,0.3-1.4,0.5-2.2,0.7c-0.3,0.1-0.5,0.1-0.8,0.2
		c-0.6,2,0.7,3.9,0.6,6c-0.1,3-3,5.1-4.9,7.1c-2.1,2.3-2,4.5-1.8,7.5c-1.9,0.8-3.9,1.5-5.7,2.5c-6,3.4-7.8,8-9.4,14.3l-1.2-0.6
		c-0.9-1.6-1-3.2-1.1-5c-0.4-14.4,0.1-29.1,0.2-43.5l0.3-124C574.9,378.7,583.1,371.8,591.2,363.4z"/>
	<path class="st0" d="M441.8,365.8c5.3,2.3,9.6,7.9,13.9,11.7c3.1,2.7,6.4,5.1,9.7,7.5c0.3,55.7,1,111.4,0.2,167.1
		c-19.7,7.9-44.5,10.7-65.7,9.4c-10.3-0.6-20.6-2.4-30.8-3.8l-6.6-1.1c-0.2-3-1-6.9-0.3-9.8c0.3-1.6,1-2.6,2.4-3.4
		c5.1-2.9,13.9,3.2,19.1,4.7c20.2,5.7,51,3.4,69.4-7c-2.5-5.1-5.9-9.3-9.4-13.7c-0.2-5.5-2.3-10.5-2.6-15.9c-0.5-9.4,0-19.1,0-28.6
		l0.2-55.3v-38.9C441.4,381.1,441,373.3,441.8,365.8z"/>
	<path class="st0" d="M592.4,522c6.4-0.4,13.1,2.1,19.6,2.3c12.8,0.5,25.3-1.2,38-1.9c0.3,2.5,1.2,4.2,2.5,6.3l0.5,0.8
		c-0.2,0.4-0.4,0.8-0.5,1.3c-0.1,0.2-0.1,0.4-0.2,0.6c-1,2.6-0.8,5.4-0.7,8.2c5.4,0.8,10.9,1.1,16.4,1.5c-0.1,2.4-0.6,5.5,0.8,7.6
		c3,1.1,7.1,1,10.3,1.4c14.6,1.8,28.9,3.6,43.7,3.9c-0.1,4.4-0.1,8.9-0.1,13.3c-20.1,1.8-40.2,4.7-60.3,7.2L566,586.3
		c-10.3,1.2-20.7,2.4-31,3.8c-7.3,0.9-14.8,2.2-22.3,2.2c-7.7,0-15.5-1.4-23.2-2.4c-11.3-1.5-22.6-3-33.9-4.4
		c-47.7-5.9-95.2-12.6-142.9-17.8c-0.3-4.3-0.5-8.6-0.5-13c44.3,8.1,89.7,10.9,134.4,16.6c14.6,2.1,29.2,4,43.8,5.9
		c7.2,0.9,14.6,2.2,21.9,2.2c7.1,0,14.5-1.4,21.5-2.2l40.8-4.6l83.9-9.8c15.1-1.7,39.8-2.9,53.3-7.6c-5-1.1-10.7-2.2-15.8-1.8
		c-9,0.7-10.1,2.7-20.7,1.7l7.8-3c-3.8-0.3-11.6-1.8-15.1-0.1c-0.7,0.3-0.5,0.3-0.7,1.2c1.3,2.5,4.9,3.2,7.4,4
		c-14.5,0-28.8,2.4-43.2,3.5c-12.9,1-25.5,0.3-38.4-1.1c-5.1-0.5-11.7-0.8-16.2-3.3c-1.4-0.8-1.9-1.6-2.3-3.1c1-4.2,6.1-7,9.6-9.2
		c0.5,0.4,1.1,0.9,1.6,1.3c0.5,0.4,0.9,0.7,1.5,1.1c3.3,2,8.4,2.8,12.2,3.4c21,3.3,41.3-0.2,61.8-4.7c-15.9-3.3-36.7-0.5-53.3-1
		c-5-0.1-10.4-0.2-15.2-1.6c-2.3-0.7-4.1-1.4-5.2-3.5c0-2,0.4-3.7,1.4-5.5c0.3-0.4,0.6-1.1,1-1.4c2.8-2.4,11.5,0.4,15,0.9
		c14.6,2,30.2-0.3,44.2-4.5c-9.4,0.4-18.7,2.5-28.2,2.7c-6.9,0.2-21.7,1.3-26.6-3.7C592.7,526.1,592.5,524.3,592.4,522z"/>
	<path class="st0" d="M466.7,181.2c0.1,0,0.2,0,0.3,0c0.7-0.1,1.3,0,2,0c-0.4,1.2-1.5,1.5-2.6,2.1c-11.7,5.6-23.2,10.2-34.1,17.3
		c-31.2,20.5-53.2,56.2-61,92.5c-0.2,0.9-0.9,1.6-1.9,1.7c-8.2,0.9-14.9,3.2-22.7,6.2c-2,0.8-4,1.6-6.1,2.3c-1.8,0.6-1.9,3.2-0.1,4
		c4.1,1.8,8.2,3.7,12.4,5.5c1.1,0.5,1.6,1.9,1,2.9c-2.5,4.7-4.3,9.7-4.2,15.2c0,7.5,3.4,14.7,8.8,19.8c6.3,6,13.4,7.3,21.5,7.4
		c1.2,0,2.1,1,2.1,2.1c-0.5,50,0.7,100.1-1.2,150c-0.1,1.7-2,2.7-3.4,1.6c-0.7-0.5-1.4-1-2-1.5c-27.6-21.1-46.2-58.2-53.6-91.7
		c-12.3-55.9,0.1-110.7,30.8-158.4c0.8-1.3,1.6-2.5,2.5-3.7c0.8-1.2,1.7-2.4,2.5-3.7c0.9-1.2,1.7-2.4,2.6-3.6
		c0.9-1.2,1.8-2.4,2.7-3.5c0.9-1.2,1.9-2.3,2.8-3.5c1-1.1,1.9-2.3,2.9-3.4c1-1.1,2-2.2,3-3.3s2-2.2,3.1-3.2s2.1-2.1,3.1-3.2
		c1.1-1,2.1-2.1,3.2-3.1s2.2-2,3.3-3c1.1-1,2.2-2,3.4-2.9c1.1-1,2.3-1.9,3.4-2.8c1.2-0.9,2.3-1.9,3.5-2.8c1.2-0.9,2.4-1.8,3.6-2.7
		s2.4-1.7,3.6-2.6s2.5-1.7,3.7-2.5s2.5-1.6,3.8-2.4c1.3-0.8,2.5-1.6,3.8-2.3c1.3-0.8,2.6-1.5,3.9-2.2s2.6-1.4,3.9-2.1
		c1.3-0.7,2.6-1.4,4-2c1.3-0.7,2.7-1.3,4-1.9c1.4-0.6,2.7-1.2,4.1-1.8s2.7-1.2,4.1-1.7c1.4-0.6,2.8-1.1,4.2-1.6
		c1.4-0.5,2.8-1,4.2-1.5c1.4-0.5,2.8-1,4.2-1.4c1.4-0.5,2.8-0.9,4.3-1.3c1.4-0.4,2.9-0.8,4.3-1.2s2.9-0.7,4.3-1.1
		C463.9,181.8,465.3,181.5,466.7,181.2z"/>
	<path class="st0" d="M509.8,244.7c14.5-1.2,28.8,2.2,40.9,10.3c14.3,9.7,23.1,25.9,26.2,42.7c3.1,16.8-0.1,34.9-10,48.9
		c-10.5,15-25.4,21.5-43,24.5c-15.3,1.4-32.7-3.7-45.3-12.4c-12.5-8.6-20.2-22.5-22.9-37.3c-3.1-17.3,0.7-37.5,10.9-51.9
		C477,254.8,492.4,247.7,509.8,244.7z M512.2,253.8c0,1.9,0.2,4-0.7,5.7c-3.4,2.4-7.9,3-11.7,4.6c-6.2,2.7-12.1,10.5-13.3,16.9
		c-0.9,5.2,0.5,10.3,3.6,14.5c5.2,7,13.8,10.7,21.7,13.8c-0.1,13.5,0,27-0.2,40.5c-7-2-12.9-4.7-16.6-11.4c-0.5-0.8-0.9-1.7-1.3-2.5
		c-0.1-0.2-0.2-0.5-0.3-0.7c-1.9-4.3-0.8-15.8-4.6-18c-1.4,1-1.7,2.8-2,4.5c-0.9,4.8-2.3,25.5,0.2,29.2l1.1,0.5
		c0.6-0.7,1.1-1.3,1.6-2.1c0.5-0.9,0.9-1.3,1.9-1.7c2.7-0.1,7.4,3.9,10.3,5.1c3.2,1.4,6.5,2.2,9.8,2.9c-0.1,2.2-0.8,5.6,0.9,7.3
		c0.6,0.6,1.4,0.9,2.2,1.3c1.2-1,2.1-1.7,2.4-3.3c0.3-1.6,0.1-3.6,0.1-5.3c10.2-0.8,20-3.5,26.8-11.7c4-4.8,6.2-11,5.6-17.3
		c-0.8-7.8-5.5-14.8-11.6-19.6c-6.2-4.9-13.6-8-21-10.5c0-10.5-0.2-21.1,0.3-31.6c4.8,0.6,11.7,1.1,14.9,5.3
		c3.6,4.7,2.2,14.7,7.6,17.8c0.7-0.2,1-0.1,1.5-0.8c1.7-2.7,1.5-21.9,0.3-25.3c-0.3-0.9-0.6-1.3-1.3-1.8c-1.3,0.1-1.6,0.1-2.5,1.2
		c-0.5,0.7-0.9,1.8-1.2,2.6c-6.3-1.6-12.5-3.2-19-3.8c-0.1-1.8,0.1-3.9-1.1-5.4C514.8,253.9,513.6,253.9,512.2,253.8z"/>
	<path class="st0" d="M510.5,265.9l0.7,0.2c2.4,3.3,0.9,23.2,0.7,28.5c-2.4-1.1-4.7-2.4-7-3.8c-3.7-3.5-5.3-6.9-6.7-11.7
		c0.2-0.8,0.5-1.6,0.8-2.4C501.1,270.9,505.1,268.5,510.5,265.9z"/>
	<path class="st0" d="M516.6,311.3c4.6,1.8,9.1,4,12.9,7.2c3.7,3.1,6.7,7.2,7,12.2c0.3,5.3-2.3,9.8-5.6,13.7
		c-4.5,3.7-8.5,5.2-14.2,6L516.6,311.3z"/>
	<path class="st0" d="M508.4,180.8c24.2-2,49.2,3.5,70.7,14.6c27.2,14,51.7,40.3,64.1,68.5c4.4,9.9,7,20.4,10.3,30.7
		c-21.2-2.1-42.4-3.5-63.6-4.1c-3.5-10.4-7.5-20.1-14-29.1c-12.8-17.5-30.7-26.4-51.8-29.8c-15.5-1.7-32.2,2.3-45.7,10.1
		c-19.8,11.4-29.4,28.1-35.2,49.6c-20.8-1.2-43.7,0-64.5,1.7c5-22.2,16.7-45.5,31.4-62.6c0.8-0.9,1.5-1.8,2.3-2.7s1.6-1.7,2.4-2.6
		c0.8-0.9,1.6-1.7,2.5-2.5c0.8-0.8,1.7-1.7,2.5-2.5c0.9-0.8,1.7-1.6,2.6-2.4c0.9-0.8,1.8-1.6,2.6-2.3c0.9-0.8,1.8-1.5,2.7-2.3
		c0.9-0.7,1.8-1.5,2.8-2.2c0.9-0.7,1.9-1.4,2.8-2.1c0.9-0.7,1.9-1.4,2.9-2.1c1-0.7,1.9-1.3,2.9-2s2-1.3,3-1.9c1-0.6,2-1.3,3-1.9
		c1-0.6,2-1.2,3.1-1.8c1-0.6,2.1-1.1,3.1-1.7c1-0.6,2.1-1.1,3.1-1.6c1.1-0.5,2.1-1,3.2-1.6c1.1-0.5,2.1-1,3.2-1.5s2.2-0.9,3.3-1.4
		c1.1-0.4,2.2-0.9,3.3-1.3c1.1-0.4,2.2-0.8,3.3-1.2c1.1-0.4,2.2-0.8,3.3-1.1c1.1-0.4,2.2-0.7,3.4-1.1c1.1-0.3,2.3-0.7,3.4-1
		s2.3-0.6,3.4-0.9c1.1-0.3,2.3-0.6,3.4-0.8c1.2-0.3,2.3-0.5,3.5-0.7s2.3-0.4,3.5-0.6s2.3-0.4,3.5-0.6c1.2-0.2,2.3-0.3,3.5-0.5
		c1.2-0.1,2.3-0.3,3.5-0.4C506,181,507.2,180.9,508.4,180.8z M628.2,261.5c-10.8,3.5-21.5,7.2-32.3,10.4c1.1,3.8,2.3,7.7,3.1,11.6
		c3.3-0.3,6.6-0.8,9.9-1c10.5-0.5,21.1-1.1,31.6-0.8c-2-5.7-5.7-16.6-10.8-20.2H628.2z M417.6,235.8c-4.7,6-9.3,11.9-13.2,18.4
		c9.6,4,19.8,6.6,29.5,10.3l5.3,1.9c2.1-3.3,4.1-6.8,6.5-10C436.9,249.2,427.8,240.4,417.6,235.8z M400.2,261.9
		c-2.9,6.6-5.7,13.3-8.1,20.1c12.5,0,25,0,37.5,0.1c1.5-0.1,2.6,0.2,3.7-1c1.7-1.7,2-5.4,2.7-7.7c-6.7-2.4-13.4-4.5-20.2-6.4
		C410.7,265.5,405.1,264.1,400.2,261.9z M614,236.4c-8.7,6.9-18.4,12.6-27.3,19.2c2,3.1,4,6.3,5.8,9.4l5.3-2.1
		c9.8-3.4,19.7-6.3,29.7-9C623.6,247.9,619.7,241,614,236.4z M520.5,190.3l-0.5,30.8c3.9,0.5,10.5,2.4,14.1,0.4c0.6-1,0.8-2,1.1-3.1
		c1.4-8.8,3.1-17.5,5-26.1C533.6,191.1,527.1,190.5,520.5,190.3z M507.3,190.7c-5.1,0.8-10,1.7-15,2.9c0.7,2.8,6.4,27.7,7.3,28.7
		l13.8-1.1c0-0.2-0.1-0.3-0.1-0.5c-0.9-5.8-0.1-27.1-2.3-30C509.7,190.4,508.7,190.5,507.3,190.7z M436.7,217
		c-4.2,4-8.3,8.1-12.2,12.3c8.5,6.1,16.3,12.7,23.9,19.9l0.9,0.7c3.2-1.4,6.8-5.8,9.4-8.3C451.8,232.9,445.1,224.2,436.7,217z
		 M595.3,218.4c-7.8,6.9-14.7,14.6-21.4,22.6c2.4,2.6,4.8,5.2,7.2,7.9l4.4-2.9c7.8-5.3,15.6-10.9,23.6-16
		C604.7,226,600.3,221.6,595.3,218.4z M459.3,204c-5,2.5-9.9,5.2-14.4,8.5c6.4,6.8,12.1,14.3,18.2,21.4c0.5,0.5,1.2,1.7,2,1.7
		c2.9,0.2,7.7-4,10.2-5.7C471.7,224.1,463.7,207.4,459.3,204z M482.6,195.5c-5.3,1.7-10.4,3.5-15.5,5.6c4.2,8.2,8.7,16.6,13.5,24.5
		c0.7,1.1,0.8,1.7,2.2,1.8c2.6,0.4,7.3-2.2,9.8-3.3c-2.7-9-5-20.1-9.1-28.4L482.6,195.5z M548.5,194.5c-2.7,9.7-5.1,19.5-7.3,29.3
		l11.2,3.2l2.1-4.3c3.6-7.4,7.5-14.8,10.8-22.3C559.8,198.3,554,196.7,548.5,194.5z M573.9,203.8c-5,8.9-10.2,17.7-15.5,26.5
		c2.7,1.7,6.8,5.1,10.1,4.4l1.6-1.5c6.2-6.5,12.3-13.4,17.7-20.5C583.3,209.7,578.2,207,573.9,203.8z"/>
	<path class="st0" d="M556.9,178.6c-0.1,0,0-0.2,0-0.2l12.7,2.9c37,8.4,70.8,31.6,95.7,59.9c34.5,39.2,55.1,91.1,51.6,143.6
		c-0.1,1.6-0.2,3.2-0.4,4.7c-0.1,1.6-0.3,3.1-0.5,4.7s-0.4,3.1-0.6,4.7c-0.2,1.6-0.5,3.1-0.7,4.7c-0.3,1.6-0.5,3.1-0.8,4.7
		s-0.6,3.1-1,4.6c-0.3,1.5-0.7,3.1-1.1,4.6s-0.8,3.1-1.2,4.6s-0.8,3-1.3,4.6c-0.4,1.5-0.9,3-1.4,4.5s-1,3-1.5,4.5s-1.1,3-1.6,4.5
		c-0.6,1.5-1.1,2.9-1.7,4.4c-0.6,1.5-1.2,2.9-1.8,4.4c-0.6,1.4-1.3,2.9-1.9,4.3c-0.7,1.4-1.3,2.9-2,4.3s-1.4,2.8-2.2,4.2
		c-0.7,1.4-1.5,2.8-2.3,4.2c-0.8,1.4-1.6,2.8-2.4,4.1s-1.6,2.7-2.5,4.1c-0.8,1.3-1.7,2.7-2.6,4c-0.9,1.3-1.8,2.6-2.7,3.9
		s-1.8,2.6-2.7,3.9s-1.9,2.5-2.8,3.8c-1,1.3-1.9,2.5-2.9,3.7s-2,2.4-3,3.7c-1,1.2-2.1,2.4-3.1,3.6s-2.1,2.3-3.2,3.5
		c-1.1,1.2-2.2,2.3-3.3,3.4s-2.2,2.2-3.4,3.3c-1.1,1.1-2.3,2.2-3.4,3.3c-1.1,1-2.3,2-3.4,3.1c0,0-0.1,0-0.1-0.1
		c0.7-37.8,0.1-75.6,0-113.4c0-16.9-0.3-33.9,0.2-50.9c0,0,0-0.1-0.1-0.1c-4.9-1.7-9.2-4.1-13.6-6.8h-0.1
		c-14.7,10.8-29.1,3.3-42.9,12.2c0,0,0,0-0.1,0l-5.6-1.9h-0.1c-8.3,11.2-18.8,21.5-31.7,27.3c0,0,0,0,0,0.1l0.2,103
		c0.1,23.8,0.4,47.7-0.1,71.5c0,0,0,0.1-0.1,0.1c-3.3,0.5-6.6,0.7-9.9,1c0,0-0.1,0-0.1-0.1c-0.9-19.3-0.1-38.8-0.1-58.2V386.9
		c0,0,0-0.1-0.1-0.1c-3.1,0.8-6.2,1.5-9.3,2.2c0,0-0.1,0-0.1,0.1c0.3,32.2-0.2,64.4-0.4,96.6c-0.1,24.5,0.3,49.2-0.4,73.7
		c0,0,0,0.1-0.1,0.1c-4.7,0-9.4,0.2-14,0.4c0,0-0.1,0-0.1-0.1l-0.6-168.2c0,0,0-0.1-0.1-0.1l-12.3,0.5c0,0-0.1,0-0.1,0.1l-0.1,110.3
		c0,19.2,0.6,38.7-0.2,57.8c0,0,0,0.1-0.1,0.1l-13-0.8c0,0-0.1,0-0.1-0.1c-0.6-11.7-0.9-23.4-0.9-35.1l0.5-133.5c0,0,0-0.1-0.1-0.1
		l-11.6-3.1c0,0-0.1,0-0.1,0.1c-0.5,38.4,0,76.9,0,115.3c0,17.7,1.1,38-0.5,55.4l-0.1,0.1c-3.7-0.9-7.3-2-10.9-3.4c0,0,0,0,0-0.1
		l0.6-171.9V383c-7.8-3.8-14.7-9.1-21.8-14c-8.5-5.8-26.9-15.9-36.8-17.9c-5.6-1.1-11.6-1.1-17.3-1.7l0,0c-1.8,1-3.6,2-5.5,2.7
		c-6.9,2.5-15.3,1.4-21.8-1.8c-5.7-2.9-10.4-7.6-12.3-13.8c-1.4-4.6-3-10-0.5-14.3c0.5-0.8,3.8-6.3,5.3-6l-3.6,7
		c-1.4,2.3-1.1,4.6-0.5,7.4c1.1,4.8,4.9,9.5,9.1,12c0.5,0.3,1,0.5,1.5,0.8c0.5,0.2,1,0.4,1.5,0.6s1,0.3,1.6,0.4
		c0.5,0.1,1.1,0.2,1.6,0.3c0.5,0.1,1.1,0.1,1.6,0.1s1.1,0,1.6,0s1.1-0.1,1.6-0.2s1.1-0.2,1.6-0.4c4.5-1.2,8.9-4.4,11.1-8.6
		c1.4-2.7,1.7-5.8,0.6-8.7c-1.7-4.5-5.9-7.9-10.3-9.7c-5.4-2.2-11.9-2.4-17.3,0c-0.2,0.1-0.4,0.2-0.6,0.3l-0.4,0.3l-0.7,0.3
		l-6.1,6.3c-2.2-3.8,6.6-14,3.5-16.8c-1.8-1.6-6.7-3.4-4.3-3.5c9.7-0.5,19.7,0.5,29.4,0.5c18.6,0.1,37.2-0.5,55.8-0.5
		c0,0,0.1,0,0.1,0.1c-0.6,5-0.8,9.9-0.7,14.8c0,0.9-0.8,1.6-1.7,1.4c-4.5-0.9-1.5-1.8-2.7-2.5c-3.3-1.8-7.3-2.3-10.9-1.1
		c-2.5,0.8-4.6,2.4-5.8,4.9c-1.4,3.1-1.1,7,0.1,10.2c3.6,9.4,17.4,23.9,25.3,30l11,8.5c0.5,0.4,2.2,2.4-1.5,0
		c-10.3-6.8-6.9-7.1-10.7-12.4c-2.2-3,14.4,13.6-8.7,0.4c-0.2-0.1-1.2-3.2-1.4-3.3c-2.9-1.5-35.9-9.7-36.7-13
		c-0.6-2.5,15.5-18.6,17-20.7c1.5-2.2,16-6.4,18.6-6.8c2.5-0.4,6.5,2.2,8.1,4.3c2,2.6,3,13.6,4.1,16.7c4.4,13.1,11.7,23.6,22.8,32
		c16.6,12.6,37.4,17.6,57.9,14.8c20.5-2.8,41.9-13.2,54.5-29.9c0.6-0.8,1.2-1.7,1.8-2.5c0.6-0.9,1.1-1.7,1.7-2.6
		c0.5-0.9,1-1.8,1.5-2.7c0.5-0.9,1-1.8,1.4-2.8c0.4-0.9,0.9-1.9,1.3-2.8c0.4-1,0.8-1.9,1.1-2.9c0.4-1,0.7-2,1-2.9c0.3-1,0.6-2,0.8-3
		s0.5-2,0.7-3s0.4-2,0.5-3.1c0.2-1,0.3-2.1,0.4-3.1c0.1-1,0.2-2.1,0.2-3.1s0.1-2.1,0.1-3.1s0-2.1-0.1-3.1s-0.1-2.1-0.2-3.1
		c-0.1-1-0.2-2-0.4-3c0,0,0-0.1,0.1-0.1c13.9,0.2,27.7,1.2,41.6,1.5c11.8,0.3,23.8-0.1,35.6-0.6c6.3-0.3,13-0.1,19.2-1.1
		c2-0.3,4.1-0.6,5.3-2.3l-0.4-0.8l0,0c-7-4.9-24.6-5.7-33.2-6.8c0,0,0,0-0.1,0c-1.9-8.9-4.5-17.6-7.7-26
		c-12.3-31.6-35.7-60.5-65.5-77.1C577,186.4,567,183,556.9,178.6z M656,316.6L656,316.6c-4.9,1.2-9.6,2.8-12.4,7.4
		c-1.8,2.9-2.1,6.2-1.2,9.5c1.1,4.1,4.2,7.7,7.9,9.7c3.8,2.1,7.2,2.1,11.4,1.8l0,0c5.1-1.7,9.7-4,12.2-9c1.6-3.1,1.9-6.6,0.7-9.9
		c-1.3-3.7-4.4-6.5-8-8C663.3,316.7,659.6,316.4,656,316.6z M610.2,314.6L610.2,314.6c-4.1,1.1-6.5,2.7-8.6,6.4
		c-2.4,4.3,18.3-12.3,19.7-7.6c0.9,3-18.6,27.8-15.8,29.2c0.9,0.4,1.5,0.6,2.5,0.6l-14.3-0.7c10.1-32,15.8-0.4,16.2-1.6
		c-4.4-2.3-14.9-22.9-10.3-25.9c22.8-6.1,22.3,1.1,24.1,1.6c3.7,1.1,4.2,0.2,5.9,3.6c0.3,0.6-0.9,4.7,1.3,2.2c0.3-0.3,0.7,0,0.5,0.4
		c-1.9,3,3.3-1.2,3.3-1.1l4.9-1.4c0.1,0-12.1,17.2-12.1,17.2l12.4-20.3c0,0-7.4,19.5-7.4,19.4c0.8-2.9,1.6-5.5,2.8-7.9
		c1.7-3.6-3.3-6.6-5.7-3.4c0,0.1,5.3,4.3,5.3,4.4c0,0-5.5-4.1-5.5-4.2c-3.8-5.3-7.4-9.3-14.2-10.4
		C613.5,314.6,611.8,314.6,610.2,314.6z M681.6,306c-3.7-0.2-17.8,0.2-13.7-0.1c4.2-0.3,19.1-0.2-0.6,2.1
		c-7.4,0.8,14.5,14,15.1,20.5c0.1,0.6,0.1,1.2,0.1,1.7c0,0.6,0,1.2-0.1,1.7c-0.1,0.6-0.2,1.1-0.3,1.7s-0.3,1.1-0.5,1.7
		s-0.4,1.1-0.6,1.6s-0.5,1-0.8,1.6c-0.3,0.5-0.6,1-0.9,1.5c-0.3,0.5-0.7,0.9-1.1,1.4c-3.6,4.1-9.6,7.5-15.1,7.8
		c-4.1,0.2-8.2-0.8-12.2-0.6c-0.1,0-0.1,0.1,0,0.2c6.2,3.5,13.1,5,20.1,3c6.3-1.8,11.6-6.3,14.6-12.1c0.2-0.4,0.4-0.8,0.6-1.1
		c0.2-0.4,0.4-0.8,0.5-1.2c0.2-0.4,0.3-0.8,0.5-1.2c0.1-0.4,0.3-0.8,0.4-1.2c0.1-0.4,0.2-0.8,0.3-1.2c0.1-0.4,0.2-0.8,0.3-1.2
		c0.1-0.4,0.2-0.8,0.2-1.3c0.1-0.4,0.1-0.8,0.1-1.3c0-0.4,0.1-0.8,0.1-1.3c0-0.4,0-0.8,0-1.3c0-0.4,0-0.8,0-1.3
		c0-0.4-0.1-0.8-0.1-1.3c0-0.4-0.1-0.8-0.2-1.3c-0.1-0.4-0.1-0.8-0.2-1.2c-0.1-0.4-0.2-0.8-0.3-1.2c-0.1-0.4-0.2-0.8-0.4-1.2
		c-1.3-4.1,3.1-15.9-2.6-14.1l-1.2,0.1l0,0L681.6,306L681.6,306z M412.6,313c-0.2,0-0.4-0.1-0.5,0.1c-6.1,12.3-0.5,8-1.6,11.8
		c-1.2,3.8,1.9,4.1,1.7,7.7c0,0.4-9.5,1.1-9.2,1.5c0.6,1.1,1.2-5,2-4c0.5,0.5,7.7,2.5,8.3,2.9l-3,7.7h0.1c1.7-6.2-8-12-6-17.7
		c0.8-2.4,3.1-7.9,3.9-10.3c0.2-0.7,5.8,0.6,5.1,0.5C413.1,313,412.9,313,412.6,313z"/>
	<path class="st0" d="M655,321.6c1.9-0.1,3.8-0.1,5.6,0.4c2.8,0.8,5.7,2.6,7.1,5.2c1.1,1.9,1.3,4.1,0.6,6.2
		c-1.1,3.2-3.7,4.8-6.6,6.4c-1.8,0.3-3.5,0.5-5.3,0.2c-0.3-0.1-0.7-0.1-1-0.2s-0.6-0.2-0.9-0.3c-0.3-0.1-0.6-0.3-0.9-0.4
		c-0.3-0.2-0.6-0.3-0.9-0.5c-0.3-0.2-0.5-0.4-0.8-0.6s-0.5-0.4-0.7-0.7c-0.2-0.2-0.5-0.5-0.7-0.8s-0.4-0.5-0.6-0.8
		c-0.2-0.3-0.3-0.5-0.5-0.8c-0.1-0.3-0.3-0.6-0.4-0.9c-0.1-0.3-0.2-0.6-0.3-0.9s-0.1-0.6-0.2-0.9c0-0.3-0.1-0.6-0.1-1
		c0-0.3,0-0.6,0-1c0-0.3,0.1-0.6,0.1-1c0.1-0.3,0.1-0.6,0.2-0.9C649.8,324.8,652,323.2,655,321.6z M656.1,329.1
		c-0.6,1.7-1.2,3.1-1.1,5c0.9,1.5,1.4,1.9,3.1,2.4c0.2,0.1,0.5,0.1,0.7,0.2c-2.1,0.9-3.9,0-4.9-1.5
		C653.1,334,654.4,330.4,656.1,329.1z"/>
	<g>
		<g>
			<path class="st0" d="M396,317.4c0,7,0,14.1,0,21.1c0,5.8,9,5.8,9,0c0-7,0-14.1,0-21.1C405,311.6,396,311.6,396,317.4L396,317.4z"
				/>
		</g>
	</g>
	<g>
		<g>
			<path class="st0" d="M409,316.5c0,7.5,0,15,0,22.5c0,5.8,9,5.8,9,0c0-7.5,0-15,0-22.5C418,310.7,409,310.7,409,316.5L409,316.5z"
				/>
		</g>
	</g>
	<g>
		<g>
			<path class="st0" d="M421.5,314.8c0,8.4,0,16.8,0,25.3c0,5.8,9,5.8,9,0c0-8.4,0-16.8,0-25.3C430.5,309,421.5,308.9,421.5,314.8
				L421.5,314.8z"/>
		</g>
	</g>
	<g>
		<g>
			<path class="st0" d="M601,316.5c0,8.7,0,17.3,0,26c0,5.8,9,5.8,9,0c0-8.7,0-17.3,0-26C610,310.8,601,310.7,601,316.5L601,316.5z"
				/>
		</g>
	</g>
	<g>
		<g>
			<path class="st0" d="M614,318.5c0,7.5,0,15,0,22.5c0,5.8,9,5.8,9,0c0-7.5,0-15,0-22.5C623,312.7,614,312.7,614,318.5L614,318.5z"
				/>
		</g>
	</g>
	<g>
		<g>
			<path class="st0" d="M627,319.5c0,6.8,0,13.7,0,20.5c0,5.8,9,5.8,9,0c0-6.8,0-13.7,0-20.5C636,313.7,627,313.7,627,319.5
				L627,319.5z"/>
		</g>
	</g>
	<g>
		<g>
			<path class="st0" d="M679.5,300c-28.7,0-57.3,0-86,0c-5.8,0-5.8,9,0,9c28.7,0,57.3,0,86,0C685.3,309,685.3,300,679.5,300
				L679.5,300z"/>
		</g>
	</g>
	<g>
		<g>
			<path class="st0" d="M441.5,299c-16.6,0-33.1,0-49.7,0c-7.6,0-15.5-0.6-23.1,0.2c-5.7,0.6-12.3,2.1-15.2,7.5
				c-2.8,5.1,5,9.6,7.8,4.5c2.6-4.7,13.4-3.3,17.9-3.3c6.8,0,13.6,0,20.5,0c14,0,27.9,0,41.9,0C447.3,308,447.3,299,441.5,299
				L441.5,299z"/>
		</g>
	</g>
	<g>
		<g>
			<path class="st0" d="M675,310.5c3,0,6,0,9,0c5.8,0,5.8-9,0-9c-3,0-6,0-9,0C669.2,301.5,669.2,310.5,675,310.5L675,310.5z"/>
		</g>
	</g>
	<g>
		<g>
			<path class="st0" d="M658.2,349.2c-3.6,0.4-7.2,0.7-10.7,1.1c-2.5,0.3-2.6,4.3,0,4c3.6-0.4,7.2-0.7,10.7-1.1
				C660.8,353,660.8,349,658.2,349.2L658.2,349.2z"/>
		</g>
	</g>
	<g>
		<g>
			<path class="st0" d="M662.2,349.7c-4.7,0.9-9.4,1-14.2,0.6c-2.6-0.2-2.5,3.8,0,4c5.1,0.5,10.2,0.2,15.2-0.7
				C665.8,353,664.7,349.2,662.2,349.7L662.2,349.7z"/>
		</g>
	</g>
	<g>
		<g>
			<path class="st0" d="M654.8,348.3c-3.4,0-6.8,0-10.3,0c-2.6,0-2.6,4,0,4c3.4,0,6.8,0,10.3,0C657.3,352.3,657.3,348.3,654.8,348.3
				L654.8,348.3z"/>
		</g>
	</g>
	<g>
		<g>
			<path class="st0" d="M646.7,348.5c-2.2,0.4-4.3,0-6.3-1.1c-2.2-1.3-4.3,2.2-2,3.5c2.9,1.6,6.1,2.1,9.3,1.5
				C650.3,351.8,649.2,348,646.7,348.5L646.7,348.5z"/>
		</g>
	</g>
	<g>
		<g>
			<path class="st0" d="M639.2,350.5c4.3,1.9,8.8,3.2,13.5,3.7c2.6,0.3,2.5-3.7,0-4c-4-0.4-7.9-1.5-11.5-3.1
				C638.9,346,636.9,349.5,639.2,350.5L639.2,350.5z"/>
		</g>
	</g>
	<g>
		<g>
			<path class="st0" d="M666.1,348.9c-1,0.3-2,0.4-3.1,0.3c-1.1,0-2,0.9-2,2s0.9,2,2,2c1.4,0.1,2.8-0.1,4.1-0.5
				C669.7,352.1,668.6,348.2,666.1,348.9L666.1,348.9z"/>
		</g>
	</g>
	<g>
		<g>
			<path class="st0" d="M592.3,360.1c1.6-0.4,3.2-0.9,4.8-1.3c2.5-0.7,1.4-4.5-1.1-3.9c-1.6,0.4-3.2,0.9-4.8,1.3
				C588.7,356.9,589.8,360.8,592.3,360.1L592.3,360.1z"/>
		</g>
	</g>
	<g>
		<g>
			<path class="st0" d="M591.5,359.9c1.4-0.4,2.9-0.7,4.4-0.9c1.1-0.1,2-0.8,2-2c0-1-0.9-2.1-2-2c-1.8,0.2-3.7,0.6-5.5,1
				C588,356.7,589,360.5,591.5,359.9L591.5,359.9z"/>
		</g>
	</g>
	<g>
		<g>
			<path class="st0" d="M592,359.5c1.1-0.4,2.2-0.6,3.3-0.7c1.1,0,2-0.9,2-2s-0.9-2-2-2c-1.5,0-3,0.3-4.4,0.8
				c-1,0.4-1.7,1.4-1.4,2.5C589.8,359.1,591,359.9,592,359.5L592,359.5z"/>
		</g>
	</g>
	<g>
		<g>
			<path class="st0" d="M592.3,359c-0.3,0.2,0.2-0.1,0.2-0.1c0.1,0,0.3-0.1,0.4-0.1c0.2,0,0.3,0,0.1,0s0.3,0,0.4,0
				c0.2,0,0.5,0,0.7,0.1c1,0.1,2-1,2-2c-0.1-1.2-0.9-1.9-2-2c-1.3-0.2-2.6,0.1-3.9,0.7c-0.9,0.4-1.3,1.9-0.7,2.7
				C590.2,359.3,591.3,359.5,592.3,359L592.3,359z"/>
		</g>
	</g>
	<g>
		<g>
			<path class="st0" d="M592.9,359.3c1.9-0.4,3.9-0.8,5.9-0.9c2.5-0.2,2.6-4.2,0-4c-2.3,0.2-4.7,0.5-7,1.1
				C589.4,356,590.4,359.8,592.9,359.3L592.9,359.3z"/>
		</g>
	</g>
	<g>
		<g>
			<path class="st0" d="M592.3,358.8c0,0,0.6-0.3,0.2-0.1c0.2-0.1,0.3-0.1,0.5-0.2s0.3-0.1,0.5-0.1c0.1,0,0.6-0.1,0.2,0
				c1-0.1,2.1-0.8,2-2c0-1-0.9-2.1-2-2c-1.2,0.2-2.3,0.4-3.4,1c-0.9,0.5-1.3,1.9-0.7,2.7C590.1,359.1,591.3,359.4,592.3,358.8
				L592.3,358.8z"/>
		</g>
	</g>
	<g>
		<g>
			<path class="st0" d="M594,358.2c4.8,0.4,9.7-0.8,14.5-0.9c2.6,0,2.6-4,0-4c-4.8,0.1-9.7,1.3-14.5,0.9
				C591.4,354,591.5,358,594,358.2L594,358.2z"/>
		</g>
	</g>
	<g>
		<g>
			<path class="st0" d="M641.9,348.5c-0.7-0.7-1.4-1.4-2.1-2c-1.6-1.6-4.3,0.4-3.1,2.4c0.9,1.6,2.3,2.1,4,1.4
				c-0.5,0.1-1,0.1-1.5,0.2c0.8,0.3,1.5,0.9,2.3,1.2c1,0.3,2,0.4,3,0.5c2.6,0.3,5.1,0.4,7.7,0.4c2.6,0,2.6-4,0-4
				c-2.9,0-6.4,0.2-9.2-0.7c-1.9-0.6-2.6-1.8-4.6-0.9c0.7,0,1.3,0,2,0l-0.1-0.1c-1,0.8-2.1,1.6-3.1,2.4c0.7,0.7,1.4,1.4,2.1,2
				C640.9,353.1,643.8,350.3,641.9,348.5L641.9,348.5z"/>
		</g>
	</g>
	<g>
		<g>
			<path class="st0" d="M674.8,307c-3.6-5.5-10.2-5.7-16-6.7c-2.4-0.4-4.8,0.6-5.5,3.1c-0.6,2.2,0.7,5.1,3.1,5.5
				c2.1,0.4,4.3,0.7,6.4,1.1c1.3,0.2,3.4,0.3,4.2,1.4C670.2,316.4,678,311.9,674.8,307L674.8,307z"/>
		</g>
	</g>
	<g>
		<g>
			<path class="st0" d="M660.4,346.4c-5,0.4-10.5-1.3-15.4-2.2c-0.2,1.2-0.3,2.4-0.5,3.5c3-0.1,6.2,1,9.2,1.3c3.1,0.3,6.1,0.3,9.2,0
				c-0.3-1.1-0.6-2.2-0.9-3.4c-2.6,1.6-7.2,0.9-10.1,0.9c-2.8-0.1-5.6-0.2-7.5-2.6c-1.5-1.8-4,0.8-2.5,2.5c2.3,2.8,5.6,3.4,9,3.6
				c4.1,0.2,9.3,0.9,12.9-1.3c1.4-0.9,1-3.5-0.9-3.4c-3.1,0.2-6.1,0.3-9.2,0c-3.1-0.3-6.1-1.4-9.2-1.3c-1.9,0.1-2.6,3.1-0.5,3.5
				c5.3,1,11,2.8,16.4,2.3C662.7,349.8,662.7,346.2,660.4,346.4L660.4,346.4z"/>
		</g>
	</g>
</g>
</svg>
