<?xml version="1.0" encoding="utf-8"?>
<!-- Generator: Adobe Illustrator 27.1.0, SVG Export Plug-In . SVG Version: 6.00 Build 0)  -->
<svg version="1.1" id="Layer_1" xmlns="http://www.w3.org/2000/svg" xmlns:xlink="http://www.w3.org/1999/xlink" x="0px" y="0px"
	 viewBox="0 0 800 800" style="enable-background:new 0 0 800 800;" xml:space="preserve">
<style type="text/css">
	.st0{fill:#233C5A;}
</style>
<g id="Layer_1_00000143592729734613147720000011442308682790756254_">
	<path class="st0" d="M394.5,412.1c0.6-0.1,0.8-0.2,1.4,0.2c-0.5,0.9-1.7,1.5-2.6,2.1c-2.5,0-4.9-0.4-7.4-0.6
		c-1.2-0.1-2.3-0.4-3.4-0.7C386.4,412.9,390.5,412.4,394.5,412.1z"/>
	<path class="st0" d="M335,404.1c0.5-0.1,1-0.1,1.5-0.1l0.4,0.4c0.1,1.1-0.1,2.2-0.2,3.3c-3.4-0.5-6.8-0.9-10.1-1.4l-4.5-1
		C326.4,404.8,330.7,404.7,335,404.1z"/>
	<path class="st0" d="M349,265.4c0.9-0.1,2,0,2.9,0.3c1.1,0.4,2,1.2,2.5,2.2c0.6,1.3,0.5,2.7,0,4c-0.9,2.3-2.4,3.2-4.4,4.3
		c-1.1,0-2.1-0.1-3.1-0.5c-0.2-0.1-0.4-0.2-0.5-0.3c-0.2-0.1-0.3-0.2-0.5-0.3c-0.1-0.1-0.3-0.2-0.4-0.4c-0.1-0.1-0.2-0.3-0.4-0.4
		c-0.1-0.1-0.2-0.3-0.4-0.5c-0.1-0.2-0.2-0.3-0.3-0.5c-0.1-0.2-0.2-0.4-0.2-0.5c-0.1-0.2-0.1-0.4-0.2-0.5s-0.1-0.4-0.1-0.5
		c0-0.2-0.1-0.4-0.1-0.5s0-0.4,0-0.5c0-0.2,0-0.4,0.1-0.5c0-0.2,0.1-0.4,0.1-0.5c0.1-0.2,0.1-0.4,0.2-0.5c0.1-0.2,0.1-0.3,0.2-0.5
		c0.1-0.2,0.2-0.3,0.2-0.5C345.6,266.4,347.1,265.8,349,265.4z"/>
	<path class="st0" d="M352.4,386.8c2.9,0.1,5.9,0.8,8.8,1.2c3.3,0.5,6.6,0.6,9.9,0.7c4.4,0,12.4-1.6,15.9-0.7l0.3,0.5
		c0,1-0.2,1.8-0.5,2.8c-2.5,1.5-5.9,1.9-8.7,2.1c-4.6,0.4-22.1,1-25.1-2.4C352.1,390,352.3,388.1,352.4,386.8z"/>
	<path class="st0" d="M387.5,393.1c0.6-0.1,1.1-0.1,1.6,0.4c1.1,0.9,1.9,2.3,2.1,3.7c-0.2,0.7-0.4,1.2-0.9,1.6
		c-3.6,2.8-22.5,2.9-27.8,2.7c-2.9-0.1-5.9-0.4-8.8-0.8c-0.4-0.1-0.8-0.2-1.2-0.4c-1-0.4-1.8-1-2.2-2c-0.4-0.9-0.6-2.3-0.1-3.2
		c0.6-1.2,1.9-1.5,3.1-1.6c2.6-0.2,5.3,0.9,7.9,1.2c2.2,0.2,4.4,0.4,6.6,0.4c2.2,0.1,4.4,0,6.6-0.2c2.2-0.1,4.4-0.4,6.6-0.7
		C383.2,393.9,385.4,393.6,387.5,393.1z"/>
	<path class="st0" d="M403.7,409.7c2.5,0.1,5.4,1.3,7.8,1.9c4.4,1.1,8.9,1.8,13.4,2c12.5,0.5,25.1-2.3,37.6-2.2c1.4,0,3.6-0.1,4.6,1
		c-0.1,0.1-0.1,0.2-0.1,0.2c-0.8,1.1-2.7,1.2-3.9,1.4c-8.5,1.3-17,2.8-25.6,3.7c-6,0.5-31.3,1-34.9-2.8c-0.5-0.5-0.8-1.1-0.8-1.8
		C401.9,411.6,402.8,410.7,403.7,409.7z"/>
	<path class="st0" d="M380.8,290.6c1,0.7,1.9,1.4,2.9,2.1c0.4,8.4,1.6,91.3-0.1,93.8c-0.9-0.5-1.6-0.9-2.2-1.8
		c-1.1-1.8-1.2-4.6-1.4-6.6c-0.5-6.5-0.4-13-0.4-19.5v-28.3v-20.8C379.8,303.3,379.5,296.7,380.8,290.6z"/>
	<path class="st0" d="M370.4,286.7c0.5,0.2,1.3,0.6,1.6,1.1c1.1,1.7,1.9,79.6,1.5,88.6c-0.1,1.6-0.2,3.3-0.5,4.9s-0.6,3.2-1.1,4.8
		c-0.4-0.1-0.9-0.1-1.3-0.3c-0.6-0.3-0.9-0.7-1.2-1.3c-1-2.6-0.8-6.8-0.8-9.7c-0.4-16.2,0.2-32.6,0.4-48.8
		c0.1-11.3-0.4-22.9,0.4-34.1C369.5,290,369.6,288.5,370.4,286.7z"/>
	<path class="st0" d="M494.4,287.2c0.3,0.1,0.5,0.3,0.8,0.5c1.4,4.3,2.3,94.8,1.2,97.8c-0.3,0.9-1.1,0.9-1.8,1.2
		c-0.9-0.2-1.7-0.2-2.2-1.2c-0.4-0.6-0.4-1.6-0.5-2.3c-0.5-21.2,0-42.6,0.2-63.8l0.1-19.8c0-3.6-0.2-7.5,0.3-11
		C492.9,287.7,493.6,287.5,494.4,287.2z"/>
	<path class="st0" d="M483.2,287.2c0.4,0.1,0.6,0.4,1,0.6c1,3,1.7,93.9,0.8,98c-0.7,0.6-1.8,0.6-2.7,0.7c-0.5-0.1-1.5-0.4-1.6-0.9
		c-0.6-1.5-0.1-23-0.1-25.8l-0.1-44.5c-0.1-6.7-1.3-20.4,0.2-26.3C481.2,288.1,482.2,287.7,483.2,287.2z"/>
	<path class="st0" d="M357.6,287.6h4.1c0.5,19.9,0.3,39.9,0.3,59.9c0,9.2,0.8,31.2-1.3,39.2c-1.4-0.4-2.6-1-3.9-1.6L357.6,287.6z"/>
	<path class="st0" d="M503.6,286.9l4.5,0.2c-0.5,10.3-0.1,20.7,0,31l0.3,42.4c0,4.5,0.1,8.9,0.1,13.4c0.1,3.8,0.4,7.7-0.2,11.4
		c-1.6,0.8-3.6,0.8-5.4,1c-0.5-13.3-0.2-26.8-0.2-40.1C503,326.4,503.2,306.6,503.6,286.9z"/>
	<path class="st0" d="M476.3,291.2c0.6,2.9,0.4,92.7-0.2,95.3c-0.4,0.2-0.8,0.3-1.3,0.4c-0.2,0.1-0.3,0.1-0.5,0.1
		c-0.4,1.2,0.4,2.4,0.4,3.7c-0.1,1.8-1.8,3.1-2.9,4.3c-1.2,1.4-1.2,2.7-1.1,4.6c-1.1,0.5-2.3,0.9-3.4,1.5c-3.5,2.1-4.6,4.9-5.5,8.7
		l-0.7-0.4c-0.5-1-0.6-2-0.6-3c-0.2-8.8,0.1-17.7,0.1-26.5l0.2-75.6C466.7,300.5,471.5,296.3,476.3,291.2z"/>
	<path class="st0" d="M388.4,292.6c3.1,1.4,5.6,4.8,8.2,7.1c1.8,1.6,3.8,3.1,5.7,4.6c0.2,34,0.6,67.9,0.1,101.9
		c-11.6,4.8-26.2,6.5-38.6,5.7c-6.1-0.4-12.1-1.5-18.1-2.3l-3.9-0.7c-0.1-1.8-0.6-4.2-0.2-6c0.2-1,0.6-1.6,1.4-2.1
		c3-1.8,8.2,2,11.2,2.9c11.9,3.5,30,2.1,40.8-4.3c-1.5-3.1-3.5-5.7-5.5-8.4c-0.1-3.4-1.4-6.4-1.5-9.7c-0.3-5.7,0-11.6,0-17.4
		l0.1-33.7v-23.7C388.2,302,387.9,297.2,388.4,292.6z"/>
	<path class="st0" d="M477,387.9c3.8-0.2,7.7,1.3,11.5,1.4c7.5,0.3,14.9-0.7,22.3-1.2c0.2,1.5,0.7,2.6,1.5,3.8l0.3,0.5
		c-0.1,0.2-0.2,0.5-0.3,0.8c-0.1,0.1-0.1,0.2-0.1,0.4c-0.6,1.6-0.5,3.3-0.4,5c3.2,0.5,6.4,0.7,9.6,0.9c-0.1,1.5-0.4,3.4,0.5,4.6
		c1.8,0.7,4.2,0.6,6.1,0.9c8.6,1.1,17,2.2,25.7,2.4c-0.1,2.7-0.1,5.4-0.1,8.1c-11.8,1.1-23.6,2.9-35.5,4.4l-56.7,7.2
		c-6.1,0.7-12.2,1.5-18.2,2.3c-4.3,0.5-8.7,1.3-13.1,1.3c-4.5,0-9.1-0.9-13.6-1.5c-6.6-0.9-13.3-1.8-19.9-2.7
		c-28.1-3.6-56-7.7-84-10.9c-0.2-2.6-0.3-5.2-0.3-7.9c26.1,4.9,52.8,6.6,79,10.1c8.6,1.3,17.2,2.4,25.8,3.6
		c4.2,0.5,8.6,1.3,12.9,1.3c4.2,0,8.5-0.9,12.6-1.3l24-2.8l49.3-6c8.9-1,23.4-1.8,31.3-4.6c-2.9-0.7-6.3-1.3-9.3-1.1
		c-5.3,0.4-5.9,1.6-12.2,1l4.6-1.8c-2.2-0.2-6.8-1.1-8.9-0.1c-0.4,0.2-0.3,0.2-0.4,0.7c0.8,1.5,2.9,2,4.4,2.4
		c-8.5,0-16.9,1.5-25.4,2.1c-7.6,0.6-15,0.2-22.6-0.7c-3-0.3-6.9-0.5-9.5-2c-0.8-0.5-1.1-1-1.4-1.9c0.6-2.6,3.6-4.3,5.6-5.6
		c0.3,0.2,0.6,0.5,0.9,0.8c0.3,0.2,0.5,0.4,0.9,0.7c1.9,1.2,4.9,1.7,7.2,2.1c12.3,2,24.3-0.1,36.3-2.9c-9.4-2-21.6-0.3-31.3-0.6
		c-2.9-0.1-6.1-0.1-8.9-1c-1.4-0.4-2.4-0.9-3.1-2.1c0-1.2,0.2-2.3,0.8-3.4c0.2-0.2,0.4-0.7,0.6-0.9c1.6-1.5,6.8,0.2,8.8,0.5
		c8.6,1.2,17.8-0.2,26-2.7c-5.5,0.2-11,1.5-16.6,1.6c-4.1,0.1-12.8,0.8-15.6-2.3C477.2,390.4,477,389.3,477,387.9z"/>
	<path class="st0" d="M403.1,180.1c0.1,0,0.1,0,0.2,0c0.4-0.1,0.8,0,1.2,0c-0.2,0.7-0.9,0.9-1.5,1.3c-6.9,3.4-13.6,6.2-20.1,10.5
		c-18.3,12.5-31.3,34.3-35.9,56.4c-0.1,0.5-0.5,1-1.1,1c-4.8,0.5-8.8,2-13.3,3.8c-1.2,0.5-2.4,1-3.6,1.4c-1.1,0.4-1.1,2-0.1,2.4
		c2.4,1.1,4.8,2.3,7.3,3.4c0.6,0.3,0.9,1.2,0.6,1.8c-1.5,2.9-2.5,5.9-2.5,9.3c0,4.6,2,9,5.2,12.1c3.7,3.7,7.9,4.5,12.6,4.5
		c0.7,0,1.2,0.6,1.2,1.3c-0.3,30.5,0.4,61-0.7,91.4c-0.1,1-1.2,1.6-2,1c-0.4-0.3-0.8-0.6-1.2-0.9c-16.2-12.9-27.2-35.5-31.5-55.9
		c-7.2-34.1,0.1-67.5,18.1-96.6c0.5-0.8,0.9-1.5,1.5-2.3c0.5-0.7,1-1.5,1.5-2.3c0.5-0.7,1-1.5,1.5-2.2c0.5-0.7,1.1-1.5,1.6-2.1
		c0.5-0.7,1.1-1.4,1.6-2.1c0.6-0.7,1.1-1.4,1.7-2.1c0.6-0.7,1.2-1.3,1.8-2s1.2-1.3,1.8-2c0.6-0.6,1.2-1.3,1.8-2
		c0.6-0.6,1.2-1.3,1.9-1.9c0.6-0.6,1.3-1.2,1.9-1.8c0.6-0.6,1.3-1.2,2-1.8c0.6-0.6,1.4-1.2,2-1.7c0.7-0.5,1.4-1.2,2.1-1.7
		c0.7-0.5,1.4-1.1,2.1-1.6c0.7-0.5,1.4-1,2.1-1.6c0.7-0.5,1.5-1,2.2-1.5c0.7-0.5,1.5-1,2.2-1.5s1.5-1,2.2-1.4
		c0.8-0.5,1.5-0.9,2.3-1.3c0.8-0.4,1.5-0.9,2.3-1.3s1.5-0.9,2.4-1.2c0.8-0.4,1.6-0.8,2.4-1.2c0.8-0.4,1.6-0.7,2.4-1.1
		c0.8-0.4,1.6-0.7,2.4-1c0.8-0.4,1.6-0.7,2.5-1c0.8-0.3,1.6-0.6,2.5-0.9c0.8-0.3,1.6-0.6,2.5-0.9c0.8-0.3,1.6-0.5,2.5-0.8
		c0.8-0.2,1.7-0.5,2.5-0.7c0.8-0.2,1.7-0.4,2.5-0.7C401.4,180.5,402.2,180.3,403.1,180.1z"/>
	<path class="st0" d="M428.4,218.8c8.5-0.7,16.9,1.3,24.1,6.3c8.4,5.9,13.6,15.8,15.4,26c1.8,10.2-0.1,21.3-5.9,29.8
		c-6.2,9.1-14.9,13.1-25.3,14.9c-9,0.9-19.2-2.3-26.6-7.6c-7.4-5.2-11.9-13.7-13.5-22.7c-1.8-10.5,0.4-22.9,6.4-31.6
		C409.1,225,418.2,220.6,428.4,218.8z M429.8,224.4c0,1.2,0.1,2.4-0.4,3.5c-2,1.5-4.6,1.8-6.9,2.8c-3.6,1.6-7.1,6.4-7.8,10.3
		c-0.5,3.2,0.3,6.3,2.1,8.8c3.1,4.3,8.1,6.5,12.8,8.4c-0.1,8.2,0,16.5-0.1,24.7c-4.1-1.2-7.6-2.9-9.8-6.9c-0.3-0.5-0.5-1-0.8-1.5
		c-0.1-0.1-0.1-0.3-0.2-0.4c-1.1-2.6-0.5-9.6-2.7-11c-0.8,0.6-1,1.7-1.2,2.7c-0.5,2.9-1.4,15.5,0.1,17.8l0.6,0.3
		c0.4-0.4,0.6-0.8,0.9-1.3c0.3-0.5,0.5-0.8,1.1-1c1.6-0.1,4.4,2.4,6.1,3.1c1.9,0.9,3.8,1.3,5.8,1.8c-0.1,1.3-0.5,3.4,0.5,4.5
		c0.4,0.4,0.8,0.5,1.3,0.8c0.7-0.6,1.2-1,1.4-2c0.2-1,0.1-2.2,0.1-3.2c6-0.5,11.8-2.1,15.8-7.1c2.4-2.9,3.6-6.7,3.3-10.5
		c-0.5-4.8-3.2-9-6.8-11.9c-3.6-3-8-4.9-12.3-6.4c0-6.4-0.1-12.9,0.2-19.3c2.8,0.4,6.9,0.7,8.8,3.2c2.1,2.9,1.3,9,4.5,10.9
		c0.4-0.1,0.6-0.1,0.9-0.5c1-1.6,0.9-13.4,0.2-15.4c-0.2-0.5-0.4-0.8-0.8-1.1c-0.8,0.1-0.9,0.1-1.5,0.7c-0.3,0.4-0.5,1.1-0.7,1.6
		c-3.7-1-7.4-2-11.2-2.3c-0.1-1.1,0.1-2.4-0.6-3.3C431.3,224.4,430.6,224.4,429.8,224.4z"/>
	<path class="st0" d="M428.8,231.7l0.4,0.1c1.4,2,0.5,14.1,0.4,17.4c-1.4-0.7-2.8-1.5-4.1-2.3c-2.2-2.1-3.1-4.2-3.9-7.1
		c0.1-0.5,0.3-1,0.5-1.5C423.3,234.8,425.6,233.3,428.8,231.7z"/>
	<path class="st0" d="M432.4,259.4c2.7,1.1,5.4,2.4,7.6,4.4c2.2,1.9,3.9,4.4,4.1,7.4c0.2,3.2-1.4,6-3.3,8.4c-2.6,2.3-5,3.2-8.4,3.7
		L432.4,259.4z"/>
	<path class="st0" d="M427.6,179.9c14.2-1.2,28.9,2.1,41.6,8.9c16,8.5,30.4,24.6,37.7,41.8c2.6,6,4.1,12.4,6.1,18.7
		c-12.5-1.3-24.9-2.1-37.4-2.5c-2.1-6.3-4.4-12.3-8.2-17.7c-7.5-10.7-18.1-16.1-30.5-18.2c-9.1-1-18.9,1.4-26.9,6.2
		c-11.6,6.9-17.3,17.1-20.7,30.2c-12.2-0.7-25.7,0-37.9,1c2.9-13.5,9.8-27.7,18.5-38.2c0.5-0.5,0.9-1.1,1.4-1.6
		c0.5-0.5,0.9-1,1.4-1.6c0.5-0.5,0.9-1,1.5-1.5c0.5-0.5,1-1,1.5-1.5c0.5-0.5,1-1,1.5-1.5s1.1-1,1.5-1.4c0.5-0.5,1.1-0.9,1.6-1.4
		c0.5-0.4,1.1-0.9,1.6-1.3c0.5-0.4,1.1-0.9,1.6-1.3c0.5-0.4,1.1-0.9,1.7-1.3c0.6-0.4,1.1-0.8,1.7-1.2c0.6-0.4,1.2-0.8,1.8-1.2
		s1.2-0.8,1.8-1.2c0.6-0.4,1.2-0.7,1.8-1.1c0.6-0.4,1.2-0.7,1.8-1c0.6-0.4,1.2-0.7,1.8-1c0.6-0.3,1.2-0.6,1.9-1
		c0.6-0.3,1.2-0.6,1.9-0.9c0.6-0.3,1.3-0.5,1.9-0.9c0.6-0.2,1.3-0.5,1.9-0.8c0.6-0.2,1.3-0.5,1.9-0.7c0.6-0.2,1.3-0.5,1.9-0.7
		c0.6-0.2,1.3-0.4,2-0.7c0.6-0.2,1.4-0.4,2-0.6c0.6-0.2,1.4-0.4,2-0.5c0.6-0.2,1.4-0.4,2-0.5c0.7-0.2,1.4-0.3,2.1-0.4
		c0.7-0.1,1.4-0.2,2.1-0.4c0.7-0.1,1.4-0.2,2.1-0.4c0.7-0.1,1.4-0.2,2.1-0.3c0.7-0.1,1.4-0.2,2.1-0.2
		C426.2,180,426.9,179.9,427.6,179.9z M498,229.1c-6.4,2.1-12.6,4.4-19,6.3c0.6,2.3,1.4,4.7,1.8,7.1c1.9-0.2,3.9-0.5,5.8-0.6
		c6.2-0.3,12.4-0.7,18.6-0.5c-1.2-3.5-3.4-10.1-6.4-12.3H498z M374.2,213.4c-2.8,3.7-5.5,7.3-7.8,11.2c5.6,2.4,11.6,4,17.3,6.3
		l3.1,1.2c1.2-2,2.4-4.1,3.8-6.1C385.5,221.6,380.2,216.2,374.2,213.4z M364,229.3c-1.7,4-3.4,8.1-4.8,12.3c7.4,0,14.7,0,22.1,0.1
		c0.9-0.1,1.5,0.1,2.2-0.6c1-1,1.2-3.3,1.6-4.7c-3.9-1.5-7.9-2.7-11.9-3.9C370.1,231.5,366.8,230.6,364,229.3z M489.7,213.8
		c-5.1,4.2-10.8,7.7-16.1,11.7c1.2,1.9,2.4,3.8,3.4,5.7l3.1-1.3c5.8-2.1,11.6-3.8,17.5-5.5C495.3,220.8,493,216.6,489.7,213.8z
		 M434.7,185.7l-0.3,18.8c2.3,0.3,6.2,1.5,8.3,0.2c0.4-0.6,0.5-1.2,0.6-1.9c0.8-5.4,1.8-10.7,2.9-15.9
		C442.4,186.1,438.6,185.8,434.7,185.7z M426.9,185.9c-3,0.5-5.9,1-8.8,1.8c0.4,1.7,3.8,16.9,4.3,17.5l8.1-0.7
		c0-0.1-0.1-0.2-0.1-0.3c-0.5-3.5-0.1-16.5-1.4-18.3C428.3,185.7,427.8,185.8,426.9,185.9z M385.4,201.9c-2.5,2.4-4.9,4.9-7.2,7.5
		c5,3.7,9.6,7.7,14.1,12.1l0.5,0.4c1.9-0.9,4-3.5,5.5-5.1C394.3,211.6,390.4,206.3,385.4,201.9z M478.7,202.8
		c-4.6,4.2-8.6,8.9-12.6,13.8c1.4,1.6,2.8,3.2,4.2,4.8l2.6-1.8c4.6-3.2,9.2-6.6,13.9-9.8C484.2,207.4,481.6,204.7,478.7,202.8z
		 M398.7,194c-2.9,1.5-5.8,3.2-8.5,5.2c3.8,4.1,7.1,8.7,10.7,13c0.3,0.3,0.7,1,1.2,1c1.7,0.1,4.5-2.4,6-3.5
		C406,206.3,401.3,196.1,398.7,194z M412.4,188.8c-3.1,1-6.1,2.1-9.1,3.4c2.5,5,5.1,10.1,7.9,14.9c0.4,0.7,0.5,1,1.3,1.1
		c1.5,0.2,4.3-1.3,5.8-2c-1.6-5.5-2.9-12.3-5.4-17.3L412.4,188.8z M451.2,188.2c-1.6,5.9-3,11.9-4.3,17.9l6.6,2l1.2-2.6
		c2.1-4.5,4.4-9,6.4-13.6C457.8,190.5,454.4,189.6,451.2,188.2z M466.1,193.9c-2.9,5.4-6,10.8-9.1,16.2c1.6,1,4,3.1,5.9,2.7l0.9-0.9
		c3.6-4,7.2-8.2,10.4-12.5C471.6,197.5,468.6,195.8,466.1,193.9z"/>
	<path class="st0" d="M456.1,178.5c-0.1,0,0-0.1,0-0.1l7.5,1.8c21.8,5.1,41.6,19.3,56.3,36.5c20.3,23.9,32.4,55.5,30.3,87.5
		c-0.1,1-0.1,2-0.2,2.9c-0.1,1-0.2,1.9-0.3,2.9s-0.2,1.9-0.4,2.9s-0.3,1.9-0.4,2.9c-0.2,1-0.3,1.9-0.5,2.9c-0.2,1-0.4,1.9-0.6,2.8
		c-0.2,0.9-0.4,1.9-0.6,2.8c-0.2,0.9-0.5,1.9-0.7,2.8c-0.2,0.9-0.5,1.8-0.8,2.8c-0.2,0.9-0.5,1.8-0.8,2.7c-0.3,0.9-0.6,1.8-0.9,2.7
		c-0.3,0.9-0.6,1.8-0.9,2.7c-0.4,0.9-0.6,1.8-1,2.7c-0.4,0.9-0.7,1.8-1.1,2.7c-0.4,0.9-0.8,1.8-1.1,2.6c-0.4,0.9-0.8,1.8-1.2,2.6
		c-0.4,0.9-0.8,1.7-1.3,2.6c-0.4,0.9-0.9,1.7-1.4,2.6c-0.5,0.9-0.9,1.7-1.4,2.5c-0.5,0.8-0.9,1.6-1.5,2.5c-0.5,0.8-1,1.6-1.5,2.4
		c-0.5,0.8-1.1,1.6-1.6,2.4s-1.1,1.6-1.6,2.4s-1.1,1.5-1.6,2.3c-0.6,0.8-1.1,1.5-1.7,2.3s-1.2,1.5-1.8,2.3c-0.6,0.7-1.2,1.5-1.8,2.2
		c-0.6,0.7-1.2,1.4-1.9,2.1s-1.3,1.4-1.9,2.1c-0.6,0.7-1.3,1.3-2,2c-0.6,0.7-1.4,1.3-2,2c-0.6,0.6-1.4,1.2-2,1.9c0,0-0.1,0-0.1-0.1
		c0.4-23,0.1-46.1,0-69.1c0-10.3-0.2-20.7,0.1-31c0,0,0-0.1-0.1-0.1c-2.9-1-5.4-2.5-8-4.1h-0.1c-8.6,6.6-17.1,2-25.2,7.4
		c0,0,0,0-0.1,0l-3.3-1.2H475c-4.9,6.8-11.1,13.1-18.6,16.6c0,0,0,0,0,0.1l0.1,62.8c0.1,14.5,0.2,29.1-0.1,43.6c0,0,0,0.1-0.1,0.1
		c-1.9,0.3-3.9,0.4-5.8,0.6c0,0-0.1,0-0.1-0.1c-0.5-11.8-0.1-23.7-0.1-35.5v-69.6c0,0,0-0.1-0.1-0.1c-1.8,0.5-3.6,0.9-5.5,1.3
		c0,0-0.1,0-0.1,0.1c0.2,19.6-0.1,39.3-0.2,58.9c-0.1,14.9,0.2,30-0.2,44.9c0,0,0,0.1-0.1,0.1c-2.8,0-5.5,0.1-8.2,0.2
		c0,0-0.1,0-0.1-0.1l-0.4-102.5c0,0,0-0.1-0.1-0.1l-7.2,0.3c0,0-0.1,0-0.1,0.1l-0.1,67.2c0,11.7,0.4,23.6-0.1,35.2
		c0,0,0,0.1-0.1,0.1l-7.6-0.5c0,0-0.1,0-0.1-0.1c-0.4-7.1-0.5-14.3-0.5-21.4l0.3-81.4c0,0,0-0.1-0.1-0.1l-6.8-1.9c0,0-0.1,0-0.1,0.1
		c-0.3,23.4,0,46.9,0,70.3c0,10.8,0.6,23.2-0.3,33.8l-0.1,0.1c-2.2-0.5-4.3-1.2-6.4-2.1c0,0,0,0,0-0.1l0.4-104.8v-0.1
		c-4.6-2.3-8.6-5.5-12.8-8.5c-5-3.5-15.8-9.7-21.6-10.9c-3.3-0.7-6.8-0.7-10.2-1l0,0c-1.1,0.6-2.1,1.2-3.2,1.6
		c-4.1,1.5-9,0.9-12.8-1.1c-3.4-1.8-6.1-4.6-7.2-8.4c-0.8-2.8-1.8-6.1-0.3-8.7c0.3-0.5,2.2-3.8,3.1-3.7l-2.1,4.3
		c-0.8,1.4-0.6,2.8-0.3,4.5c0.6,2.9,2.9,5.8,5.4,7.3c0.3,0.2,0.6,0.3,0.9,0.5c0.3,0.1,0.6,0.2,0.9,0.4c0.3,0.1,0.6,0.2,0.9,0.2
		c0.3,0.1,0.6,0.1,0.9,0.2c0.3,0.1,0.6,0.1,0.9,0.1s0.6,0,0.9,0s0.6-0.1,0.9-0.1c0.3-0.1,0.6-0.1,0.9-0.2c2.6-0.7,5.2-2.7,6.5-5.2
		c0.8-1.6,1-3.5,0.4-5.3c-1-2.7-3.5-4.8-6.1-5.9c-3.2-1.3-7-1.5-10.2,0c-0.1,0.1-0.2,0.1-0.4,0.2l-0.2,0.2l-0.4,0.2l-3.6,3.8
		c-1.3-2.3,3.9-8.5,2.1-10.2c-1.1-1-3.9-2.1-2.5-2.1c5.7-0.3,11.6,0.3,17.3,0.3c10.9,0.1,21.9-0.3,32.8-0.3c0,0,0.1,0,0.1,0.1
		c-0.4,3-0.5,6-0.4,9c0,0.5-0.5,1-1,0.9c-2.6-0.5-0.9-1.1-1.6-1.5c-1.9-1.1-4.3-1.4-6.4-0.7c-1.5,0.5-2.7,1.5-3.4,3
		c-0.8,1.9-0.6,4.3,0.1,6.2c2.1,5.7,10.2,14.6,14.9,18.3l6.5,5.2c0.3,0.2,1.3,1.5-0.9,0c-6.1-4.1-4.1-4.3-6.3-7.6
		c-1.3-1.8,8.5,8.3-5.1,0.2c-0.1-0.1-0.7-2-0.8-2c-1.7-0.9-21.1-5.9-21.6-7.9c-0.4-1.5,9.1-11.3,10-12.6c0.9-1.3,9.4-3.9,10.9-4.1
		c1.5-0.2,3.8,1.3,4.8,2.6c1.2,1.6,1.8,8.3,2.4,10.2c2.6,8,6.9,14.4,13.4,19.5c9.8,7.7,22,10.7,34,9c12.1-1.7,24.6-8,32.1-18.2
		c0.4-0.5,0.7-1,1.1-1.5c0.4-0.5,0.6-1,1-1.6c0.3-0.5,0.6-1.1,0.9-1.6c0.3-0.5,0.6-1.1,0.8-1.7c0.2-0.5,0.5-1.2,0.8-1.7
		c0.2-0.6,0.5-1.2,0.6-1.8c0.2-0.6,0.4-1.2,0.6-1.8c0.2-0.6,0.4-1.2,0.5-1.8s0.3-1.2,0.4-1.8c0.1-0.6,0.2-1.2,0.3-1.9
		c0.1-0.6,0.2-1.3,0.2-1.9c0.1-0.6,0.1-1.3,0.1-1.9s0.1-1.3,0.1-1.9s0-1.3-0.1-1.9c-0.1-0.6-0.1-1.3-0.1-1.9
		c-0.1-0.6-0.1-1.2-0.2-1.8c0,0,0-0.1,0.1-0.1c8.2,0.1,16.3,0.7,24.5,0.9c6.9,0.2,14-0.1,20.9-0.4c3.7-0.2,7.6-0.1,11.3-0.7
		c1.2-0.2,2.4-0.4,3.1-1.4l-0.2-0.5l0,0c-4.1-3-14.5-3.5-19.5-4.1c0,0,0,0-0.1,0c-1.1-5.4-2.6-10.7-4.5-15.9
		c-7.2-19.3-21-36.9-38.5-47C467.9,183.3,462,181.2,456.1,178.5z M514.4,262.7L514.4,262.7c-2.9,0.7-5.6,1.7-7.3,4.5
		c-1.1,1.8-1.2,3.8-0.7,5.8c0.6,2.5,2.5,4.7,4.6,5.9c2.2,1.3,4.2,1.3,6.7,1.1l0,0c3-1,5.7-2.4,7.2-5.5c0.9-1.9,1.1-4,0.4-6
		c-0.8-2.3-2.6-4-4.7-4.9C518.7,262.7,516.5,262.5,514.4,262.7z M487.4,261.4L487.4,261.4c-2.4,0.7-3.8,1.6-5.1,3.9
		c-1.4,2.6,10.8-7.5,11.6-4.6c0.5,1.8-10.9,16.9-9.3,17.8c0.5,0.2,0.9,0.4,1.5,0.4l-8.4-0.4c5.9-19.5,9.3-0.2,9.5-1
		c-2.6-1.4-8.8-14-6.1-15.8c13.4-3.7,13.1,0.7,14.2,1c2.2,0.7,2.5,0.1,3.5,2.2c0.2,0.4-0.5,2.9,0.8,1.3c0.2-0.2,0.4,0,0.3,0.2
		c-1.1,1.8,1.9-0.7,1.9-0.7l2.9-0.9c0.1,0-7.1,10.5-7.1,10.5l7.3-12.4c0,0-4.4,11.9-4.4,11.8c0.5-1.8,0.9-3.4,1.6-4.8
		c1-2.2-1.9-4-3.4-2.1c0,0.1,3.1,2.6,3.1,2.7c0,0-3.2-2.5-3.2-2.6c-2.2-3.2-4.4-5.7-8.4-6.3C489.4,261.4,488.4,261.4,487.4,261.4z
		 M529.4,256.2c-2.2-0.1-10.5,0.1-8.1-0.1c2.5-0.2,11.2-0.1-0.4,1.3c-4.4,0.5,8.5,8.5,8.9,12.5c0.1,0.4,0.1,0.7,0.1,1
		c0,0.4,0,0.7-0.1,1c-0.1,0.4-0.1,0.7-0.2,1c-0.1,0.4-0.2,0.7-0.3,1s-0.2,0.7-0.4,1c-0.1,0.3-0.3,0.6-0.5,1
		c-0.2,0.3-0.4,0.6-0.5,0.9c-0.2,0.3-0.4,0.5-0.6,0.9c-2.1,2.5-5.6,4.6-8.9,4.8c-2.4,0.1-4.8-0.5-7.2-0.4c-0.1,0-0.1,0.1,0,0.1
		c3.6,2.1,7.7,3,11.8,1.8c3.7-1.1,6.8-3.8,8.6-7.4c0.1-0.2,0.2-0.5,0.4-0.7c0.1-0.2,0.2-0.5,0.3-0.7c0.1-0.2,0.2-0.5,0.3-0.7
		c0.1-0.2,0.2-0.5,0.2-0.7c0.1-0.2,0.1-0.5,0.2-0.7s0.1-0.5,0.2-0.7c0.1-0.2,0.1-0.5,0.1-0.8c0.1-0.2,0.1-0.5,0.1-0.8
		c0-0.2,0.1-0.5,0.1-0.8c0-0.2,0-0.5,0-0.8c0-0.2,0-0.5,0-0.8c0-0.2-0.1-0.5-0.1-0.8c0-0.2-0.1-0.5-0.1-0.8
		c-0.1-0.2-0.1-0.5-0.1-0.7c-0.1-0.2-0.1-0.5-0.2-0.7c-0.1-0.2-0.1-0.5-0.2-0.7c-0.8-2.5,1.8-9.7-1.5-8.6l-0.7,0.1l0,0L529.4,256.2
		L529.4,256.2z M371.2,260.5c-0.1,0-0.2-0.1-0.3,0.1c-3.6,7.5-0.3,4.9-0.9,7.2c-0.7,2.3,1.1,2.5,1,4.7c0,0.2-5.6,0.7-5.4,0.9
		c0.4,0.7,0.7-3,1.2-2.4c0.3,0.3,4.5,1.5,4.9,1.8l-1.8,4.7h0.1c1-3.8-4.7-7.3-3.5-10.8c0.5-1.5,1.8-4.8,2.3-6.3
		c0.1-0.4,3.4,0.4,3,0.3C371.5,260.5,371.4,260.5,371.2,260.5z"/>
	<path class="st0" d="M513.8,265.7c1.1-0.1,2.2-0.1,3.3,0.2c1.6,0.5,3.4,1.6,4.2,3.2c0.6,1.2,0.8,2.5,0.4,3.8
		c-0.6,2-2.2,2.9-3.9,3.9c-1.1,0.2-2.1,0.3-3.1,0.1c-0.2-0.1-0.4-0.1-0.6-0.1c-0.2-0.1-0.4-0.1-0.5-0.2c-0.2-0.1-0.4-0.2-0.5-0.2
		c-0.2-0.1-0.4-0.2-0.5-0.3c-0.2-0.1-0.3-0.2-0.5-0.4c-0.2-0.1-0.3-0.2-0.4-0.4c-0.1-0.1-0.3-0.3-0.4-0.5c-0.1-0.2-0.2-0.3-0.4-0.5
		c-0.1-0.2-0.2-0.3-0.3-0.5c-0.1-0.2-0.2-0.4-0.2-0.5c-0.1-0.2-0.1-0.4-0.2-0.5c-0.1-0.2-0.1-0.4-0.1-0.5c0-0.2-0.1-0.4-0.1-0.6
		c0-0.2,0-0.4,0-0.6c0-0.2,0.1-0.4,0.1-0.6c0.1-0.2,0.1-0.4,0.1-0.5C510.7,267.6,512,266.7,513.8,265.7z M514.4,270.3
		c-0.4,1-0.7,1.9-0.6,3c0.5,0.9,0.8,1.2,1.8,1.5c0.1,0.1,0.3,0.1,0.4,0.1c-1.2,0.5-2.3,0-2.9-0.9
		C512.7,273.3,513.4,271.1,514.4,270.3z"/>
	<g>
		<g>
			<path class="st0" d="M361.5,263.1c0,4.3,0,8.6,0,12.9c0,3.5,5.3,3.5,5.3,0c0-4.3,0-8.6,0-12.9
				C366.8,259.6,361.5,259.6,361.5,263.1L361.5,263.1z"/>
		</g>
	</g>
	<g>
		<g>
			<path class="st0" d="M369.1,262.6c0,4.6,0,9.1,0,13.7c0,3.5,5.3,3.5,5.3,0c0-4.6,0-9.1,0-13.7
				C374.4,259.1,369.1,259.1,369.1,262.6L369.1,262.6z"/>
		</g>
	</g>
	<g>
		<g>
			<path class="st0" d="M376.5,261.6c0,5.1,0,10.2,0,15.4c0,3.5,5.3,3.5,5.3,0c0-5.1,0-10.2,0-15.4C381.8,258,376.5,258,376.5,261.6
				L376.5,261.6z"/>
		</g>
	</g>
	<g>
		<g>
			<path class="st0" d="M482,262.6c0,5.3,0,10.5,0,15.9c0,3.5,5.3,3.5,5.3,0c0-5.3,0-10.5,0-15.9C487.3,259.1,482,259.1,482,262.6
				L482,262.6z"/>
		</g>
	</g>
	<g>
		<g>
			<path class="st0" d="M489.7,263.8c0,4.6,0,9.1,0,13.7c0,3.5,5.3,3.5,5.3,0c0-4.6,0-9.1,0-13.7C495,260.3,489.7,260.3,489.7,263.8
				L489.7,263.8z"/>
		</g>
	</g>
	<g>
		<g>
			<path class="st0" d="M497.3,264.4c0,4.1,0,8.4,0,12.5c0,3.5,5.3,3.5,5.3,0c0-4.1,0-8.4,0-12.5
				C502.6,260.9,497.3,260.9,497.3,264.4L497.3,264.4z"/>
		</g>
	</g>
	<g>
		<g>
			<path class="st0" d="M528.2,252.5c-16.9,0-33.7,0-50.6,0c-3.4,0-3.4,5.5,0,5.5c16.9,0,33.7,0,50.6,0
				C531.6,258,531.6,252.5,528.2,252.5L528.2,252.5z"/>
		</g>
	</g>
	<g>
		<g>
			<path class="st0" d="M388.2,251.9c-9.8,0-19.5,0-29.2,0c-4.5,0-9.1-0.4-13.6,0.1c-3.4,0.4-7.2,1.3-8.9,4.6
				c-1.6,3.1,2.9,5.9,4.6,2.7c1.5-2.9,7.9-2,10.5-2c4,0,8,0,12.1,0c8.2,0,16.4,0,24.6,0C391.6,257.4,391.6,251.9,388.2,251.9
				L388.2,251.9z"/>
		</g>
	</g>
	<g>
		<g>
			<path class="st0" d="M525.6,258.9c1.8,0,3.5,0,5.3,0c3.4,0,3.4-5.5,0-5.5c-1.8,0-3.5,0-5.3,0
				C522.1,253.4,522.1,258.9,525.6,258.9L525.6,258.9z"/>
		</g>
	</g>
	<g>
		<g>
			<path class="st0" d="M515.7,282.5c-2.1,0.2-4.2,0.4-6.3,0.7c-1.5,0.2-1.5,2.6,0,2.4c2.1-0.2,4.2-0.4,6.3-0.7
				C517.2,284.8,517.2,282.4,515.7,282.5L515.7,282.5z"/>
		</g>
	</g>
	<g>
		<g>
			<path class="st0" d="M518,282.8c-2.8,0.5-5.5,0.6-8.4,0.4c-1.5-0.1-1.5,2.3,0,2.4c3,0.3,6,0.1,8.9-0.4
				C520.1,284.8,519.5,282.5,518,282.8L518,282.8z"/>
		</g>
	</g>
	<g>
		<g>
			<path class="st0" d="M513.7,282c-2,0-4,0-6.1,0c-1.5,0-1.5,2.4,0,2.4c2,0,4,0,6.1,0C515.1,284.4,515.1,282,513.7,282L513.7,282z"
				/>
		</g>
	</g>
	<g>
		<g>
			<path class="st0" d="M508.9,282.1c-1.3,0.2-2.5,0-3.7-0.7c-1.3-0.8-2.5,1.3-1.2,2.1c1.7,1,3.6,1.3,5.5,0.9
				C511,284.1,510.4,281.8,508.9,282.1L508.9,282.1z"/>
		</g>
	</g>
	<g>
		<g>
			<path class="st0" d="M504.5,283.3c2.5,1.2,5.2,2,7.9,2.3c1.5,0.2,1.5-2.3,0-2.4c-2.4-0.2-4.6-0.9-6.8-1.9
				C504.3,280.6,503.1,282.7,504.5,283.3L504.5,283.3z"/>
		</g>
	</g>
	<g>
		<g>
			<path class="st0" d="M520.3,282.3c-0.6,0.2-1.2,0.2-1.8,0.2c-0.6,0-1.2,0.5-1.2,1.2s0.5,1.2,1.2,1.2c0.8,0.1,1.6-0.1,2.4-0.3
				C522.4,284.3,521.8,281.9,520.3,282.3L520.3,282.3z"/>
		</g>
	</g>
	<g>
		<g>
			<path class="st0" d="M476.9,289.2c0.9-0.2,1.9-0.5,2.8-0.8c1.5-0.4,0.8-2.7-0.6-2.4c-0.9,0.2-1.9,0.5-2.8,0.8
				C474.8,287.2,475.5,289.6,476.9,289.2L476.9,289.2z"/>
		</g>
	</g>
	<g>
		<g>
			<path class="st0" d="M476.5,289c0.8-0.2,1.7-0.4,2.6-0.5c0.6-0.1,1.2-0.5,1.2-1.2c0-0.6-0.5-1.3-1.2-1.2
				c-1.1,0.1-2.2,0.4-3.2,0.6C474.4,287.1,475,289.4,476.5,289L476.5,289z"/>
		</g>
	</g>
	<g>
		<g>
			<path class="st0" d="M476.7,288.8c0.6-0.2,1.3-0.4,1.9-0.4c0.6,0,1.2-0.5,1.2-1.2c0-0.7-0.5-1.2-1.2-1.2c-0.9,0-1.8,0.2-2.6,0.5
				c-0.6,0.2-1,0.9-0.8,1.5C475.5,288.6,476.2,289,476.7,288.8L476.7,288.8z"/>
		</g>
	</g>
	<g>
		<g>
			<path class="st0" d="M476.9,288.5c-0.2,0.1,0.1-0.1,0.1-0.1c0.1,0,0.2-0.1,0.2-0.1c0.1,0,0.2,0,0.1,0c-0.1,0,0.2,0,0.2,0
				c0.1,0,0.3,0,0.4,0.1c0.6,0.1,1.2-0.6,1.2-1.2c-0.1-0.7-0.5-1.2-1.2-1.2c-0.8-0.1-1.5,0.1-2.3,0.4c-0.5,0.2-0.8,1.2-0.4,1.6
				C475.7,288.7,476.3,288.8,476.9,288.5L476.9,288.5z"/>
		</g>
	</g>
	<g>
		<g>
			<path class="st0" d="M477.3,288.7c1.1-0.2,2.3-0.5,3.5-0.5c1.5-0.1,1.5-2.6,0-2.4c-1.4,0.1-2.8,0.3-4.1,0.7
				C475.2,286.7,475.8,289,477.3,288.7L477.3,288.7z"/>
		</g>
	</g>
	<g>
		<g>
			<path class="st0" d="M476.9,288.4c0,0,0.4-0.2,0.1-0.1c0.1-0.1,0.2-0.1,0.3-0.1c0.1-0.1,0.2-0.1,0.3-0.1c0.1,0,0.4-0.1,0.1,0
				c0.6-0.1,1.2-0.5,1.2-1.2c0-0.6-0.5-1.3-1.2-1.2c-0.7,0.1-1.4,0.2-2,0.6c-0.5,0.3-0.8,1.2-0.4,1.6
				C475.6,288.6,476.3,288.7,476.9,288.4L476.9,288.4z"/>
		</g>
	</g>
	<g>
		<g>
			<path class="st0" d="M477.9,288c2.8,0.2,5.7-0.5,8.5-0.5c1.5,0,1.5-2.4,0-2.4c-2.8,0.1-5.7,0.8-8.5,0.5
				C476.4,285.5,476.5,287.9,477.9,288L477.9,288z"/>
		</g>
	</g>
	<g>
		<g>
			<path class="st0" d="M506.1,282.1c-0.4-0.4-0.8-0.9-1.2-1.2c-0.9-1-2.5,0.2-1.8,1.5c0.5,1,1.4,1.3,2.4,0.9
				c-0.3,0.1-0.6,0.1-0.9,0.1c0.5,0.2,0.9,0.5,1.4,0.7c0.6,0.2,1.2,0.2,1.8,0.3c1.5,0.2,3,0.2,4.5,0.2c1.5,0,1.5-2.4,0-2.4
				c-1.7,0-3.8,0.1-5.4-0.4c-1.1-0.4-1.5-1.1-2.7-0.5c0.4,0,0.8,0,1.2,0l-0.1-0.1c-0.6,0.5-1.2,1-1.8,1.5c0.4,0.4,0.8,0.9,1.2,1.2
				C505.5,284.9,507.2,283.2,506.1,282.1L506.1,282.1z"/>
		</g>
	</g>
	<g>
		<g>
			<path class="st0" d="M525.4,256.8c-2.1-3.4-6-3.5-9.4-4.1c-1.4-0.2-2.8,0.4-3.2,1.9c-0.4,1.3,0.4,3.1,1.8,3.4
				c1.2,0.2,2.5,0.4,3.8,0.7c0.8,0.1,2,0.2,2.5,0.9C522.7,262.5,527.3,259.8,525.4,256.8L525.4,256.8z"/>
		</g>
	</g>
	<g>
		<g>
			<path class="st0" d="M517,280.8c-2.9,0.2-6.2-0.8-9.1-1.3c-0.1,0.7-0.2,1.5-0.3,2.1c1.8-0.1,3.6,0.6,5.4,0.8
				c1.8,0.2,3.6,0.2,5.4,0c-0.2-0.7-0.4-1.3-0.5-2.1c-1.5,1-4.2,0.5-5.9,0.5c-1.6-0.1-3.3-0.1-4.4-1.6c-0.9-1.1-2.4,0.5-1.5,1.5
				c1.4,1.7,3.3,2.1,5.3,2.2c2.4,0.1,5.5,0.5,7.6-0.8c0.8-0.5,0.6-2.1-0.5-2.1c-1.8,0.1-3.6,0.2-5.4,0c-1.8-0.2-3.6-0.9-5.4-0.8
				c-1.1,0.1-1.5,1.9-0.3,2.1c3.1,0.6,6.5,1.7,9.6,1.4C518.3,282.9,518.3,280.7,517,280.8L517,280.8z"/>
		</g>
	</g>
</g>
</svg>
